<svg width="200" height="200" viewBox="0 0 200 200" fill="none" xmlns="http://www.w3.org/2000/svg">
<mask id="mask0_2220_330" style="mask-type:alpha" maskUnits="userSpaceOnUse" x="0" y="0" width="200" height="200">
<rect width="200" height="200" fill="#D9D9D9"/>
</mask>
<g mask="url(#mask0_2220_330)">
<path d="M153.337 182.695L165.594 175.615V120.37L153.337 127.469V182.695Z" fill="#040606"/>
<path d="M41.4474 62.1892L41.3759 117.276L153.198 182.453L153.27 127.354L165.527 120.488L53.629 55.2082L41.4474 62.1892Z" fill="white"/>
<path d="M153.198 127.227L153.059 127.469V182.211L41.5823 117.233V62.3524L53.5574 55.4119L165.042 120.37L153.198 127.227ZM41.3043 62.1896V117.392L153.337 182.695V127.469L165.594 120.37L53.5574 55.0907L41.3043 62.1896Z" fill="#040606"/>
<path d="M45.6839 64.0528L150.133 125L158.745 120.009L54.2444 59.0849L45.6839 64.0528Z" fill="#040606"/>
<path d="M152.364 71.7031L62.3007 19.1757C61.6535 18.8064 61.038 18.6159 60.4742 18.6159C59.1044 18.6159 58.2587 19.728 58.2587 21.5223L58.1872 68.2801L151.328 122.554L156.553 119.612V78.9727C156.553 76.3002 154.671 73.04 152.364 71.7031Z" fill="#FEC790"/>
<path d="M156.414 119.449L151.328 122.391L58.3936 68.2371V21.5226C58.3936 19.8196 59.1917 18.7559 60.4742 18.7559C61.0142 18.7559 61.6098 18.9386 62.2332 19.2955L152.297 71.826C154.568 73.1395 156.414 76.3485 156.414 78.973V119.449ZM152.44 71.587L62.3721 19.0537C61.6892 18.6642 61.042 18.478 60.4742 18.478C59.0686 18.478 58.1157 19.598 58.1157 21.5226V68.3951L151.328 122.712L156.692 119.612V78.973C156.692 76.2294 154.79 72.9537 152.44 71.587Z" fill="#040606"/>
<path d="M73.1599 30.5556C72.1196 29.9493 71.1191 29.6392 70.1979 29.6392C69.5666 29.6392 68.9948 29.7865 68.5025 30.072L66.4894 31.2071L76.0306 47.7095L77.9683 46.4627C79.1832 45.7711 79.8781 44.2182 79.8781 42.2051C79.8781 37.9261 76.8644 32.7036 73.1599 30.5556Z" fill="white"/>
<path d="M77.8889 46.3461L76.0783 47.5138L66.7436 31.3696L68.5661 30.194C69.0465 29.9212 69.5944 29.7814 70.198 29.7814C71.0953 29.7814 72.0681 30.084 73.0925 30.6796C76.7573 32.7998 79.7431 37.9722 79.7431 42.2048C79.7431 44.1714 79.0721 45.6759 77.8889 46.3461ZM73.2315 30.4405C72.1396 29.8017 71.1112 29.4991 70.198 29.4991C69.5428 29.4991 68.9433 29.6544 68.4271 29.949L66.3704 31.2783L75.9831 47.9077L78.0398 46.5819C79.2587 45.8871 80.0171 44.3577 80.0171 42.2048C80.0171 37.8496 76.9796 32.6041 73.2315 30.4405Z" fill="#040606"/>
<path d="M71.1152 31.871L69.7731 31.2551C69.2133 31.0645 68.6732 30.9605 68.161 30.9605C65.9256 30.9605 64.5359 32.7675 64.5359 35.6739C64.5359 39.1839 66.414 44.1316 69.8922 46.3864C71.6789 47.5422 73.2195 48.1299 74.4782 48.1299C75.586 48.1299 76.4436 47.6768 77.0273 46.7882C77.5514 45.9941 77.8253 44.8621 77.8253 43.5312C77.8174 39.0846 74.8038 33.8562 71.1152 31.871Z" fill="white"/>
<path d="M74.4821 47.9872C73.2473 47.9872 71.7306 47.4115 69.9676 46.2716C66.5292 44.0397 64.6749 39.1449 64.6749 35.6738C64.6749 32.8555 66.009 31.1045 68.161 31.1045C68.6534 31.1045 69.1815 31.199 69.7056 31.3777L71.0476 31.9931C74.7005 33.9554 77.6784 39.1325 77.6903 43.5311C77.6903 44.5797 77.46 47.9872 74.4821 47.9872ZM71.1786 31.7513L69.8168 31.12C69.2331 30.9246 68.6772 30.8254 68.161 30.8254C65.9296 30.8254 64.397 32.6121 64.397 35.6738C64.397 39.4704 66.4696 44.3343 69.8168 46.5011C71.7385 47.7482 73.2791 48.2695 74.4821 48.2695C76.932 48.2695 77.9683 46.1088 77.9683 43.5311C77.9564 39.1961 74.9983 33.8001 71.1786 31.7513Z" fill="#040606"/>
<path d="M73.1599 51.6471C72.1196 51.0392 71.1191 50.7339 70.1979 50.7339C69.5666 50.7339 68.9948 50.8812 68.5025 51.1587L66.4894 52.2987L76.0306 68.8042L77.9683 67.5527C79.1832 66.8578 79.8781 65.3145 79.8781 63.2967C79.8781 59.0252 76.8644 53.7956 73.1599 51.6471Z" fill="white"/>
<path d="M77.8889 67.4379L76.0783 68.6056L66.7436 52.4567L68.5661 51.2857C69.0465 51.0114 69.5944 50.8732 70.198 50.8732C71.0913 50.8732 72.0681 51.171 73.0925 51.7698C76.7573 53.8948 79.7431 59.064 79.7431 63.2966C79.7431 65.2588 79.0721 66.7676 77.8889 67.4379ZM73.2315 51.5279C72.1396 50.8935 71.1112 50.5957 70.198 50.5957C69.5428 50.5957 68.9433 50.7509 68.4271 51.0439L66.3704 52.3701L75.9831 68.9951L78.0398 67.6721C79.2587 66.9773 80.0171 65.4526 80.0171 63.2966C80.0171 58.9413 76.9796 53.7006 73.2315 51.5279Z" fill="#040606"/>
<path d="M71.1152 52.958L69.7731 52.3421C69.2133 52.1516 68.6732 52.0571 68.161 52.0571C65.9256 52.0571 64.5359 53.8593 64.5359 56.761C64.5359 60.2709 66.414 65.2234 69.8922 67.4782C71.6789 68.634 73.2195 69.2217 74.4782 69.2217C75.586 69.2217 76.4436 68.7718 77.0273 67.8784C77.5514 67.0812 77.8253 65.9567 77.8253 64.6278C77.8174 60.1812 74.8038 54.9464 71.1152 52.958Z" fill="white"/>
<path d="M74.4821 69.0823C73.2473 69.0823 71.7306 68.5022 69.9676 67.3591C66.5292 65.1316 64.6749 60.2352 64.6749 56.761C64.6749 53.9431 66.009 52.1917 68.161 52.1917C68.6534 52.1917 69.1815 52.2866 69.7056 52.4648L71.0476 53.085C74.7005 55.0505 77.6784 60.2245 77.6903 64.623C77.6903 65.6716 77.46 69.0823 74.4821 69.0823ZM71.1786 52.8385L69.8168 52.2119C69.2331 52.0134 68.6772 51.9173 68.161 51.9173C65.9296 51.9173 64.397 53.7041 64.397 56.761C64.397 60.558 66.4696 65.4219 69.8168 67.5934C71.7385 68.8401 73.2791 69.3599 74.4821 69.3599C76.932 69.3599 77.9683 67.1963 77.9683 64.623C77.9564 60.288 74.9983 54.8952 71.1786 52.8385Z" fill="#040606"/>
<path d="M90.813 40.3003C89.7688 39.6972 88.7761 39.3823 87.8549 39.3823C87.2316 39.3823 86.6598 39.5296 86.1675 39.8151L84.1465 40.9503L93.6877 57.4526L95.6253 56.2059C96.8403 55.5158 97.5351 53.9629 97.5351 51.9499C97.5351 47.674 94.5175 42.4484 90.813 40.3003Z" fill="white"/>
<path d="M95.5459 56.0913L93.7354 57.2575L84.4007 41.1133L86.2311 39.9392C86.7075 39.6648 87.2554 39.5251 87.855 39.5251C88.7523 39.5251 89.7251 39.8276 90.7456 40.4185C94.4143 42.5435 97.4002 47.7175 97.4002 51.9501C97.4002 53.9151 96.7291 55.4195 95.5459 56.0913ZM90.8845 40.181C89.7966 39.5453 88.7682 39.2444 87.855 39.2444C87.1999 39.2444 86.6083 39.398 86.0921 39.7006L84.0314 41.0236L93.6401 57.6514L95.6968 56.3256C96.9158 55.6308 97.6781 54.1061 97.6781 51.9501C97.6781 47.5932 94.6406 42.3573 90.8845 40.181Z" fill="#040606"/>
<path d="M88.7722 41.6142L87.4341 40.9952C86.8703 40.8046 86.3302 40.7054 85.8181 40.7054C83.5787 40.7054 82.189 42.5151 82.189 45.414C82.189 48.924 84.0671 53.8748 87.5492 56.1297C89.336 57.2855 90.8765 57.8779 92.1352 57.8779C93.243 57.8779 94.1006 57.4201 94.6803 56.5347C95.2084 55.7374 95.4824 54.6022 95.4824 53.2761C95.4784 48.837 92.4687 43.607 88.7722 41.6142Z" fill="white"/>
<path d="M92.1352 57.7379C90.9043 57.7379 89.3876 57.1547 87.6247 56.0147C84.1822 53.7797 82.324 48.888 82.324 45.4138C82.324 42.5987 83.6621 40.8477 85.8181 40.8477C86.3144 40.8477 86.8425 40.9422 87.3626 41.1177L88.7047 41.7363C92.3615 43.7033 95.3434 48.8805 95.3474 53.2759C95.3474 54.3197 95.1171 57.7379 92.1352 57.7379ZM88.8357 41.4913L87.4738 40.8679C86.8901 40.6646 86.3382 40.5701 85.8181 40.5701C83.5866 40.5701 82.05 42.3569 82.05 45.4138C82.05 49.2168 84.1267 54.0775 87.4738 56.249C89.3955 57.4914 90.9361 58.0127 92.1352 58.0127C94.585 58.0127 95.6253 55.8519 95.6253 53.2759C95.6214 48.9392 92.6554 43.548 88.8357 41.4913Z" fill="#040606"/>
<path d="M90.813 61.3908C89.7688 60.7845 88.7761 60.4791 87.8549 60.4791C87.2316 60.4791 86.6598 60.6217 86.1675 60.9024L84.1465 62.0423L93.6877 78.5479L95.6253 77.2979C96.8403 76.6063 97.5351 75.0581 97.5351 73.0403C97.5351 68.7645 94.5175 63.5361 90.813 61.3908Z" fill="white"/>
<path d="M95.5459 77.1861L93.7354 78.3538L84.4007 62.2096L86.2311 61.0292C86.7075 60.7564 87.2554 60.6166 87.855 60.6166C88.7523 60.6166 89.7251 60.9192 90.7456 61.5148C94.4143 63.635 97.4002 68.8074 97.4002 73.04C97.4002 75.0023 96.7291 76.5111 95.5459 77.1861ZM90.8845 61.273C89.7966 60.6369 88.7682 60.3391 87.855 60.3391C87.1999 60.3391 86.6083 60.4943 86.0921 60.7874L84.0314 62.1135L93.6401 78.7461L95.6968 77.4203C96.9158 76.7255 97.6781 75.196 97.6781 73.04C97.6781 68.6804 94.6406 63.444 90.8845 61.273Z" fill="#040606"/>
<path d="M88.7722 62.7064L87.4341 62.0858C86.8703 61.8952 86.3302 61.8007 85.8141 61.8007C83.5787 61.8007 82.189 63.6073 82.189 66.5094C82.189 70.0161 84.0671 74.9622 87.5492 77.2223C89.336 78.3821 90.8765 78.9653 92.1352 78.9653C93.243 78.9653 94.1006 78.5171 94.6803 77.6237C95.2084 76.8252 95.4824 75.6976 95.4824 74.3714C95.4784 69.9276 92.4687 64.6948 88.7722 62.7064Z" fill="white"/>
<path d="M92.1392 78.8255C90.9044 78.8255 89.3876 78.2498 87.6247 77.1023C84.1822 74.8748 82.324 69.9831 82.324 66.5057C82.324 63.6906 83.6621 61.9396 85.8141 61.9396C86.3104 61.9396 86.8385 62.0345 87.3626 62.2096L88.7047 62.8286C92.3615 64.798 95.3434 69.9756 95.3474 74.3709C95.3474 75.4148 95.1171 78.8255 92.1392 78.8255ZM88.8357 62.5816L87.4738 61.9583C86.8901 61.7566 86.3342 61.6605 85.8141 61.6605C83.5827 61.6605 82.05 63.4472 82.05 66.5057C82.05 70.3087 84.1267 75.1698 87.4738 77.3365C89.3955 78.5833 90.9361 79.103 92.1392 79.103C94.585 79.103 95.6253 76.9395 95.6253 74.3709C95.6214 70.0312 92.6554 64.6384 88.8357 62.5816Z" fill="#040606"/>
<path d="M108.359 50.0824C107.315 49.4714 106.314 49.1629 105.393 49.1629C104.769 49.1629 104.202 49.3086 103.705 49.5953L101.688 50.734L111.229 67.2363L113.171 65.9892C114.402 65.2868 115.073 63.7776 115.073 61.7288C115.073 57.4482 112.063 52.2273 108.359 50.0824Z" fill="white"/>
<path d="M113.088 65.8701L111.273 67.0379L101.942 50.8937L103.769 49.718C104.245 49.4437 104.793 49.3055 105.393 49.3055C106.29 49.3055 107.263 49.6064 108.287 50.202C111.952 52.3267 114.938 57.4963 114.938 61.7289C114.938 63.6987 114.267 65.1983 113.088 65.8701ZM108.426 49.9646C107.338 49.3241 106.306 49.0264 105.393 49.0264C104.738 49.0264 104.146 49.1812 103.63 49.4762L101.569 50.802L111.178 67.4302L113.243 66.1088C114.462 65.4139 115.216 63.8849 115.216 61.7289C115.216 57.3768 112.175 52.1313 108.426 49.9646Z" fill="#040606"/>
<path d="M106.314 51.393L104.972 50.7772C104.404 50.5878 103.864 50.4886 103.352 50.4886C101.116 50.4886 99.7347 52.2908 99.7347 55.1976C99.7347 58.7103 101.613 63.658 105.091 65.9101C106.878 67.0655 108.418 67.6567 109.677 67.6567C110.781 67.6567 111.638 67.2005 112.226 66.3183C112.746 65.5162 113.024 64.3854 113.024 63.0549C113.016 58.6158 110.01 53.3858 106.314 51.393Z" fill="white"/>
<path d="M109.677 67.5141C108.446 67.5141 106.929 66.9388 105.167 65.794C101.728 63.5638 99.8698 58.6721 99.8698 55.1979C99.8698 52.378 101.204 50.627 103.356 50.627C103.848 50.627 104.376 50.7231 104.9 50.9014L106.25 51.5128C109.903 53.4822 112.881 58.6642 112.889 63.0552C112.889 64.1034 112.655 67.5141 109.677 67.5141ZM106.381 51.2706L105.016 50.6425C104.432 50.4487 103.872 50.3495 103.356 50.3495C101.124 50.3495 99.5919 52.1362 99.5919 55.1979C99.5919 58.9977 101.668 63.8616 105.016 66.0251C106.937 67.2755 108.478 67.7964 109.677 67.7964C112.127 67.7964 113.167 65.6313 113.167 63.0552C113.159 58.7186 110.197 53.3274 106.381 51.2706Z" fill="#040606"/>
<path d="M108.359 71.1744C107.315 70.5633 106.314 70.2576 105.393 70.2576C104.765 70.2576 104.194 70.4005 103.705 70.6828L101.688 71.8211L111.229 88.3267L113.171 87.0767C114.402 86.3771 115.073 84.8695 115.073 82.8207C115.073 78.5449 112.063 73.3192 108.359 71.1744Z" fill="white"/>
<path d="M113.088 86.9651L111.273 88.1281L101.942 71.9839L103.769 70.8098C104.245 70.5354 104.793 70.3957 105.393 70.3957C106.29 70.3957 107.263 70.6982 108.287 71.2986C111.952 73.4184 114.938 78.5881 114.938 82.8207C114.938 84.8139 114.287 86.2826 113.088 86.9651ZM108.426 71.0548C107.334 70.4207 106.306 70.1181 105.393 70.1181C104.738 70.1181 104.146 70.2734 103.63 70.5664L101.569 71.8941L111.178 88.5176L113.243 87.1962C114.462 86.5041 115.216 84.9767 115.216 82.8207C115.216 78.4638 112.175 73.2279 108.426 71.0548Z" fill="#040606"/>
<path d="M106.314 72.4806L104.972 71.8663C104.412 71.6757 103.868 71.5796 103.36 71.5796C101.124 71.5796 99.7347 73.3835 99.7347 76.2851C99.7347 79.7983 101.613 84.7503 105.091 87.0056C106.878 88.161 108.418 88.749 109.677 88.749C110.781 88.749 111.638 88.296 112.226 87.4058C112.746 86.6037 113.024 85.4765 113.024 84.1472C113.016 79.7113 110.01 74.4754 106.314 72.4806Z" fill="white"/>
<path d="M109.677 88.6059C108.446 88.6059 106.929 88.0258 105.163 86.883C101.728 84.6587 99.8698 79.7623 99.8698 76.2849C99.8698 73.4698 101.208 71.7188 103.356 71.7188C103.852 71.7188 104.38 71.8105 104.9 71.9888L106.25 72.6074C109.903 74.5772 112.881 79.7543 112.889 84.1469C112.889 85.1956 112.655 88.6059 109.677 88.6059ZM106.381 72.3624L105.016 71.739C104.432 71.5357 103.876 71.4412 103.356 71.4412C101.124 71.4412 99.5919 73.2312 99.5919 76.2849C99.5919 80.0879 101.668 84.9518 105.016 87.1201C106.937 88.3625 108.478 88.8838 109.677 88.8838C112.127 88.8838 113.167 86.7199 113.167 84.1469C113.159 79.8103 110.197 74.4223 106.381 72.3624Z" fill="#040606"/>
<path d="M124.991 60.2277C123.947 59.621 122.954 59.3141 122.029 59.3141C121.402 59.3141 120.834 59.4582 120.338 59.7437L118.325 60.8836L127.866 77.3848L129.8 76.1344C131.034 75.4352 131.709 73.926 131.709 71.8816C131.709 67.601 128.696 62.3726 124.991 60.2277Z" fill="white"/>
<path d="M129.724 76.023L127.914 77.1863L118.579 61.0421L120.401 59.8708C120.878 59.5933 121.43 59.4539 122.033 59.4539C122.931 59.4539 123.9 59.7561 124.92 60.3517C128.589 62.4751 131.571 67.6491 131.571 71.8817C131.571 73.8423 130.904 75.3484 129.724 76.023ZM125.059 60.1083C123.975 59.4738 122.947 59.176 122.033 59.176C121.374 59.176 120.779 59.3312 120.262 59.629L118.206 60.9504L127.814 77.5786L129.871 76.2572C131.094 75.5624 131.848 74.0329 131.848 71.8817C131.848 67.522 128.815 62.2841 125.059 60.1083Z" fill="#040606"/>
<path d="M122.946 61.546L121.608 60.9226C121.045 60.7316 120.501 60.6371 119.992 60.6371C117.757 60.6371 116.367 62.4394 116.367 65.3458C116.367 68.8526 118.245 73.7987 121.727 76.0587C123.514 77.2173 125.055 77.8018 126.317 77.8018C127.421 77.8018 128.279 77.3539 128.859 76.4633C129.387 75.6616 129.661 74.534 129.661 73.2031C129.649 68.7612 126.639 63.5313 122.946 61.546Z" fill="white"/>
<path d="M126.314 77.6624C125.079 77.6624 123.562 77.0871 121.803 75.9392C118.361 73.7121 116.502 68.8172 116.502 65.3458C116.502 62.5279 117.84 60.7769 119.993 60.7769C120.489 60.7769 121.017 60.8714 121.537 61.0497L122.883 61.6655C126.532 63.6305 129.514 68.8077 129.526 73.2031C129.526 74.2517 129.295 77.6624 126.314 77.6624ZM123.014 61.4189L121.652 60.7952C121.068 60.5939 120.513 60.4974 119.993 60.4974C117.757 60.4974 116.228 62.2889 116.228 65.3458C116.228 69.146 118.305 74.0051 121.652 76.1782C123.574 77.425 125.11 77.9399 126.314 77.9399C128.763 77.9399 129.8 75.7764 129.8 73.2031C129.792 68.8637 126.834 63.4753 123.014 61.4189Z" fill="#040606"/>
<path d="M124.991 81.3246C123.947 80.7163 122.954 80.4062 122.029 80.4062C121.402 80.4062 120.834 80.5535 120.338 80.8359L118.325 81.9742L127.866 98.4722L129.8 97.225C131.034 96.5274 131.709 95.0134 131.709 92.9738C131.709 88.6884 128.696 83.4679 124.991 81.3246Z" fill="white"/>
<path d="M129.724 97.1148L127.914 98.2781L118.579 82.1339L120.401 80.9583C120.878 80.6835 121.43 80.5485 122.029 80.5485C122.927 80.5485 123.9 80.8463 124.92 81.4419C128.589 83.5621 131.571 88.7318 131.571 92.9735C131.571 94.9667 130.919 96.4306 129.724 97.1148ZM125.059 81.2048C123.971 80.5687 122.943 80.2678 122.029 80.2678C121.374 80.2678 120.779 80.4214 120.262 80.7192L118.206 82.0454L127.814 98.6704L129.871 97.3443C131.094 96.6494 131.848 95.1295 131.848 92.9735C131.848 88.6138 128.815 83.3763 125.059 81.2048Z" fill="#040606"/>
<path d="M122.946 82.6333L121.608 82.0194C121.045 81.8284 120.501 81.7292 119.992 81.7292C117.757 81.7292 116.367 83.5346 116.367 86.4335C116.367 89.9478 118.245 94.8955 121.727 97.1507C123.514 98.3062 125.055 98.897 126.317 98.897C127.421 98.897 128.279 98.4443 128.859 97.5553C129.387 96.7537 129.661 95.626 129.661 94.2999C129.649 89.8517 126.639 84.6233 122.946 82.6333Z" fill="white"/>
<path d="M126.314 98.759C125.079 98.759 123.562 98.1741 121.803 97.0342C118.361 94.8039 116.502 89.9074 116.502 86.4332C116.502 83.6181 117.84 81.8715 119.993 81.8715C120.485 81.8715 121.017 81.9632 121.537 82.1415L122.883 82.7573C126.532 84.7223 129.514 89.8995 129.526 94.2997C129.526 95.3435 129.295 98.759 126.314 98.759ZM123.014 82.5155L121.652 81.8874C121.068 81.6888 120.509 81.5896 119.993 81.5896C117.757 81.5896 116.228 83.3807 116.228 86.4332C116.228 90.2378 118.305 95.1017 121.652 97.27C123.574 98.5124 125.11 99.0317 126.314 99.0317C128.763 99.0317 129.8 96.8714 129.8 94.2997C129.792 89.9603 126.834 84.5675 123.014 82.5155Z" fill="#040606"/>
<path d="M142.533 70.0109C141.493 69.403 140.492 69.0945 139.567 69.0945C138.94 69.0945 138.372 69.2402 137.88 69.5225L135.867 70.6577L145.404 87.168L147.342 85.9165C148.556 85.2216 149.251 83.6739 149.251 81.6604C149.251 77.3798 146.238 72.1546 142.533 70.0109Z" fill="white"/>
<path d="M147.262 85.8021L145.452 86.9699L136.117 70.8181L137.939 69.65C138.416 69.3725 138.968 69.2327 139.567 69.2327C140.469 69.2327 141.441 69.5353 142.466 70.134C146.135 72.2543 149.116 77.4283 149.116 81.6609C149.116 83.6231 148.445 85.1319 147.262 85.8021ZM142.605 69.8922C141.517 69.2577 140.484 68.9599 139.567 68.9599C138.912 68.9599 138.317 69.1104 137.8 69.4082L135.748 70.7296L145.352 87.3594L147.413 86.0332C148.636 85.3416 149.394 83.8137 149.394 81.6609C149.394 77.3056 146.353 72.0649 142.605 69.8922Z" fill="#040606"/>
<path d="M140.492 71.3216L139.146 70.7058C138.587 70.5152 138.047 70.4207 137.538 70.4207C135.299 70.4207 133.913 72.2229 133.913 75.1214C133.913 78.6314 135.787 83.5822 139.266 85.8375C141.052 86.9977 142.597 87.5806 143.859 87.5806C144.959 87.5806 145.817 87.1323 146.401 86.2421C146.925 85.4404 147.199 84.3176 147.199 82.9867C147.195 78.5476 144.189 73.3101 140.492 71.3216Z" fill="white"/>
<path d="M143.859 87.4416C142.624 87.4416 141.104 86.8631 139.345 85.7184C135.906 83.4913 134.048 78.596 134.048 75.1218C134.048 72.3071 135.382 70.5589 137.534 70.5589C138.03 70.5589 138.559 70.6506 139.079 70.8289L140.425 71.4447C144.082 73.4145 147.059 78.5917 147.063 82.987C147.063 84.0357 146.833 87.4416 143.859 87.4416ZM140.556 71.1997L139.194 70.5759C138.606 70.3774 138.054 70.2813 137.534 70.2813C135.303 70.2813 133.766 72.0681 133.766 75.1218C133.766 78.922 135.843 83.7859 139.194 85.9526C141.112 87.1994 142.656 87.7207 143.859 87.7207C146.305 87.7207 147.341 85.5603 147.341 82.987C147.333 78.6472 144.371 73.2592 140.556 71.1997Z" fill="#040606"/>
<path d="M142.533 91.1032C141.493 90.4953 140.492 90.182 139.567 90.182C138.94 90.182 138.372 90.3325 137.88 90.6148L135.867 91.7547L145.404 108.256L147.342 107.009C148.556 106.314 149.251 104.761 149.251 102.748C149.251 98.4721 146.238 93.2516 142.533 91.1032Z" fill="white"/>
<path d="M147.262 106.889L145.452 108.057L136.117 91.9127L137.939 90.7371C138.416 90.4639 138.968 90.3245 139.567 90.3245C140.469 90.3245 141.441 90.6267 142.466 91.2223C146.135 93.3457 149.116 98.5197 149.116 102.748C149.116 104.715 148.445 106.219 147.262 106.889ZM142.605 90.9836C141.517 90.3444 140.484 90.0466 139.567 90.0466C138.912 90.0466 138.321 90.2018 137.8 90.4996L135.748 91.821L145.352 108.449L147.413 107.128C148.636 106.428 149.394 104.904 149.394 102.748C149.394 98.3974 146.353 93.1547 142.605 90.9836Z" fill="#040606"/>
<path d="M140.492 92.4137L139.146 91.7978C138.587 91.6073 138.047 91.508 137.538 91.508C135.299 91.508 133.913 93.3102 133.913 96.2166C133.913 99.7266 135.787 104.677 139.266 106.93C141.052 108.085 142.593 108.676 143.855 108.676C144.959 108.676 145.817 108.22 146.401 107.339C146.925 106.537 147.199 105.405 147.199 104.074C147.195 99.6396 144.189 94.4069 140.492 92.4137Z" fill="white"/>
<path d="M143.855 108.533C142.624 108.533 141.104 107.958 139.345 106.815C135.906 104.583 134.048 99.6908 134.048 96.2165C134.048 93.3971 135.382 91.6504 137.534 91.6504C138.03 91.6504 138.559 91.7421 139.079 91.9204L140.425 92.5315C144.082 94.506 147.059 99.688 147.063 104.074C147.063 105.122 146.833 108.533 143.855 108.533ZM140.556 92.2897L139.194 91.6631C138.606 91.4674 138.054 91.3681 137.534 91.3681C135.303 91.3681 133.766 93.1549 133.766 96.2165C133.766 100.017 135.843 104.881 139.194 107.044C141.112 108.296 142.656 108.815 143.855 108.815C146.305 108.815 147.341 106.652 147.341 104.074C147.333 99.7388 144.371 94.3508 140.556 92.2897Z" fill="#040606"/>
<path d="M144.356 76.4324L54.2841 23.9019C53.6408 23.533 53.0214 23.342 52.4576 23.342C51.0878 23.342 50.242 24.4574 50.242 26.2516L50.1706 66.6085L148.533 123.927V83.7021C148.533 81.0343 146.658 77.7693 144.356 76.4324Z" fill="#F2A65A"/>
<path d="M144.423 76.3085L54.3556 23.7827C53.6726 23.39 53.0294 23.2026 52.4537 23.2026V23.4849C52.9977 23.4849 53.5932 23.6632 54.2166 24.0214L144.284 76.5503C146.551 77.8733 148.398 81.0775 148.398 83.7021V123.685L50.3811 66.5696V26.2516C50.3811 24.5411 51.1752 23.4849 52.4537 23.4849V23.2026C51.0521 23.2026 50.1031 24.3223 50.1031 26.2516V66.728L148.676 124.169V83.7021C148.676 80.9537 146.774 77.6748 144.423 76.3085Z" fill="#040606"/>
<path d="M65.1395 35.2891C64.0913 34.6812 63.0987 34.3727 62.1775 34.3727C61.5462 34.3727 60.9744 34.5184 60.486 34.8007L58.4769 35.9359L68.0102 52.4414L69.9518 51.1915C71.1668 50.4998 71.8616 48.9517 71.8616 46.9386C71.8616 42.6624 68.844 37.4328 65.1395 35.2891Z" fill="white"/>
<path d="M69.8724 51.0798L68.0578 52.2428L58.7311 36.0954L60.5535 34.9229C61.026 34.6502 61.574 34.5104 62.1735 34.5104C63.0709 34.5104 64.0436 34.813 65.072 35.4085C68.7408 37.5364 71.7266 42.7012 71.7266 46.9386C71.7266 48.9004 71.0556 50.4049 69.8724 51.0798ZM65.211 35.1695C64.1191 34.5338 63.0907 34.2329 62.1735 34.2329C61.5224 34.2329 60.9268 34.3881 60.4106 34.6859L58.3539 36.0073L67.9626 52.6323L70.0233 51.3093C71.2422 50.6193 72.0046 49.0898 72.0046 46.9386C72.0046 42.5789 68.9592 37.341 65.211 35.1695Z" fill="#040606"/>
<path d="M63.0987 36.5995L61.7606 35.9836C61.1928 35.793 60.6489 35.6981 60.1407 35.6981C57.9053 35.6981 56.5156 37.496 56.5156 40.3993C56.5156 43.9124 58.3936 48.8601 61.8798 51.1197C63.6625 52.2751 65.2031 52.8584 66.4617 52.8584C67.5695 52.8584 68.4271 52.4101 69.0068 51.5199C69.5349 50.7183 69.8129 49.595 69.8129 48.2645C69.801 43.8207 66.7873 38.5879 63.0987 36.5995Z" fill="white"/>
<path d="M66.4616 52.7195C65.2308 52.7195 63.714 52.141 61.9551 50.9963C58.5087 48.7736 56.6544 43.874 56.6544 40.3998C56.6544 37.5847 57.9886 35.8336 60.1406 35.8336C60.6369 35.8336 61.165 35.9285 61.6891 36.1068L63.0311 36.7227C66.684 38.6877 69.6619 43.8648 69.6738 48.265C69.6738 49.3088 69.4435 52.7195 66.4616 52.7195ZM63.1622 36.4757L61.8002 35.8523C61.2166 35.6538 60.6607 35.5593 60.1406 35.5593C57.9091 35.5593 56.3765 37.346 56.3765 40.3998C56.3765 44.2027 58.4531 49.0639 61.8002 51.235C63.722 52.4773 65.2625 52.9971 66.4616 52.9971C68.9115 52.9971 69.9518 50.8379 69.9518 48.265C69.9398 43.9252 66.9858 38.5372 63.1622 36.4757Z" fill="#040606"/>
<path d="M65.1395 56.3809C64.0992 55.7682 63.0987 55.4629 62.1775 55.4629C61.5501 55.4629 60.9824 55.6054 60.486 55.8925L58.4769 57.0309L68.0102 73.5332L69.9518 72.2864C71.1826 71.5793 71.8616 70.0669 71.8616 68.0257C71.8616 63.7498 68.844 58.529 65.1395 56.3809Z" fill="white"/>
<path d="M69.8724 72.1719L68.0578 73.3349L58.7311 57.1907L60.5535 56.015C61.03 55.7406 61.574 55.6025 62.1775 55.6025C63.0748 55.6025 64.0476 55.9082 65.072 56.499C68.7408 58.624 71.7266 63.798 71.7266 68.0259C71.7266 69.9881 71.0556 71.4925 69.8724 72.1719ZM65.211 56.2572C64.1191 55.6227 63.0907 55.3249 62.1775 55.3249C61.5224 55.3249 60.9268 55.4786 60.4106 55.7732L58.3539 57.0993L67.9626 73.7275L70.0233 72.4061C71.2422 71.7065 72.0046 70.1819 72.0046 68.0259C72.0046 63.6738 68.9592 58.4299 65.211 56.2572Z" fill="#040606"/>
<path d="M63.0987 57.6904L61.7606 57.0762C61.1928 56.8856 60.6489 56.7863 60.1407 56.7863C57.9053 56.7863 56.5156 58.5885 56.5156 61.4902C56.5156 65.0049 58.3936 69.9526 61.8798 72.2079C63.6625 73.3665 65.2031 73.9541 66.4617 73.9541C67.5695 73.9541 68.4271 73.5011 69.0068 72.6125C69.5349 71.8108 69.8129 70.6832 69.8129 69.3523C69.801 64.9088 66.7873 59.6804 63.0987 57.6904Z" fill="white"/>
<path d="M66.4656 73.8114C65.2308 73.8114 63.714 73.2313 61.9551 72.093C58.5087 69.8608 56.6544 64.9643 56.6544 61.4901C56.6544 58.6754 57.9925 56.924 60.1446 56.924C60.6409 56.924 61.165 57.0205 61.6891 57.1987L63.0311 57.8146C66.684 59.7796 69.6619 64.9568 69.6738 69.3521C69.6738 70.4008 69.4435 73.8114 66.4656 73.8114ZM63.1622 57.568L61.8002 56.9442C61.2166 56.7457 60.6607 56.6464 60.1446 56.6464C57.9091 56.6464 56.3765 58.4332 56.3765 61.4901C56.3765 65.2947 58.4531 70.1542 61.8002 72.3225C63.722 73.5692 65.2625 74.0938 66.4656 74.0938C68.9154 74.0938 69.9518 71.9298 69.9518 69.3521C69.9398 65.0171 66.9858 59.6243 63.1622 57.568Z" fill="#040606"/>
<path d="M82.7965 45.0324C81.7562 44.4245 80.7557 44.116 79.8345 44.116C79.2111 44.116 78.6394 44.2617 78.147 44.544L76.134 45.6839L85.6672 62.1895L87.6088 60.9379C88.8436 60.2352 89.5147 58.7275 89.5147 56.6819C89.5147 52.4013 86.505 47.1777 82.7965 45.0324Z" fill="white"/>
<path d="M87.5293 60.8231L85.7148 61.9909L76.384 45.8419L78.2065 44.671C78.6869 44.3935 79.2349 44.2537 79.8344 44.2537C80.7318 44.2537 81.7046 44.5562 82.729 45.1566C86.3938 47.2769 89.3796 52.4461 89.3796 56.6819C89.3796 58.6751 88.7284 60.1438 87.5293 60.8231ZM82.8679 44.9128C81.776 44.2787 80.7476 43.9809 79.8344 43.9809C79.1793 43.9809 78.5876 44.1314 78.0715 44.4292L76.0148 45.7553L85.6195 62.3804L87.6802 61.0542C88.9031 60.3625 89.6575 58.8347 89.6575 56.6819C89.6575 52.3266 86.6161 47.0859 82.8679 44.9128Z" fill="#040606"/>
<path d="M80.7557 46.3431L79.4136 45.7273C78.8498 45.5367 78.3098 45.4418 77.7976 45.4418C75.5622 45.4418 74.1765 47.2444 74.1765 50.1461C74.1765 53.656 76.0506 58.6005 79.5288 60.8634C81.3155 62.0188 82.8561 62.6021 84.1227 62.6021C85.2265 62.6021 86.0881 62.1538 86.6678 61.2636C87.1919 60.4619 87.4699 59.3387 87.4699 58.0081C87.4579 53.5659 84.4483 48.3316 80.7557 46.3431Z" fill="white"/>
<path d="M84.1187 62.4669C82.8879 62.4669 81.3672 61.8841 79.6082 60.7441C76.1697 58.5119 74.3115 53.617 74.3115 50.146C74.3115 47.3277 75.6456 45.5767 77.7976 45.5767C78.2939 45.5767 78.822 45.6716 79.3422 45.8499L80.6882 46.4657C84.3411 48.4307 87.3229 53.6095 87.3349 58.008C87.3349 59.0566 87.1006 62.4669 84.1187 62.4669ZM80.8232 46.2203L79.4534 45.5969C78.8697 45.3984 78.3178 45.3023 77.7976 45.3023C75.5662 45.3023 74.0336 47.0891 74.0336 50.146C74.0336 53.943 76.1102 58.8069 79.4534 60.978C81.3791 62.2204 82.9196 62.7417 84.1187 62.7417C86.5686 62.7417 87.6088 60.5809 87.6088 58.008C87.6009 53.6682 84.6428 48.2802 80.8232 46.2203Z" fill="#040606"/>
<path d="M82.7965 66.1246C81.7562 65.5168 80.7557 65.2035 79.8345 65.2035C79.2111 65.2035 78.6394 65.3508 78.147 65.6363L76.134 66.7762L85.6672 83.2773L87.6088 82.0302C88.8436 81.3274 89.5147 79.8186 89.5147 77.7694C89.5147 73.4936 86.505 68.2727 82.7965 66.1246Z" fill="white"/>
<path d="M87.5293 81.9103L85.7148 83.0784L76.384 66.9338L78.2065 65.7582C78.6869 65.4854 79.2349 65.3456 79.8344 65.3456C80.7318 65.3456 81.7046 65.6482 82.729 66.2438C86.3938 68.3672 89.3796 73.5412 89.3796 77.769C89.3796 79.7622 88.7284 81.2325 87.5293 81.9103ZM82.8679 66.0051C81.776 65.3659 80.7476 65.0681 79.8344 65.0681C79.1833 65.0681 78.5876 65.2233 78.0715 65.5163L76.0148 66.8425L85.6195 83.4707L87.6802 82.1493C88.9031 81.4545 89.6575 79.925 89.6575 77.769C89.6575 73.4185 86.6161 68.1762 82.8679 66.0051Z" fill="#040606"/>
<path d="M80.7557 67.4383L79.4136 66.8193C78.8498 66.6287 78.3098 66.5295 77.7976 66.5295C75.5622 66.5295 74.1765 68.3317 74.1765 71.2381C74.1765 74.7481 76.0506 79.691 79.5288 81.951C81.3155 83.1064 82.8561 83.6973 84.1227 83.6973C85.2265 83.6973 86.0881 83.2414 86.6678 82.3604C87.1919 81.5583 87.4699 80.4263 87.4699 79.0954C87.4579 74.6536 84.4483 69.4236 80.7557 67.4383Z" fill="white"/>
<path d="M84.1187 83.5546C82.8879 83.5546 81.3672 82.9793 79.6082 81.8362C76.1697 79.5996 74.3115 74.7091 74.3115 71.238C74.3115 68.4201 75.6456 66.6719 77.7976 66.6719C78.2939 66.6719 78.822 66.7636 79.3422 66.9419L80.6882 67.5577C84.3411 69.5227 87.3229 74.6999 87.3349 79.0953C87.3349 80.1439 87.1006 83.5546 84.1187 83.5546ZM80.8232 67.3155L79.4534 66.6842C78.8697 66.4889 78.3178 66.3896 77.7976 66.3896C75.5662 66.3896 74.0336 68.1763 74.0336 71.238C74.0336 75.0382 76.1102 79.9021 79.4534 82.0657C81.3791 83.3172 82.9196 83.8369 84.1187 83.8369C86.5686 83.8369 87.6088 81.673 87.6088 79.0953C87.6009 74.7603 84.6428 69.3675 80.8232 67.3155Z" fill="#040606"/>
<path d="M100.342 54.8114C99.298 54.2051 98.3014 53.895 97.3762 53.895C96.7529 53.895 96.185 54.0423 95.6927 54.3246L93.6717 55.463L103.213 71.9653L105.151 70.7186C106.381 70.011 107.06 68.5022 107.06 66.461C107.06 62.1847 104.047 56.9595 100.342 54.8114Z" fill="white"/>
<path d="M105.067 70.604L103.257 71.7702L93.9258 55.6228L95.7523 54.4471C96.2287 54.1728 96.7767 54.0346 97.3762 54.0346C98.2775 54.0346 99.2503 54.3355 100.271 54.9311C103.939 57.0589 106.921 62.2286 106.921 66.4612C106.921 68.4512 106.27 69.9199 105.067 70.604ZM100.414 54.6937C99.3218 54.058 98.2895 53.7602 97.3762 53.7602C96.7251 53.7602 96.1295 53.9107 95.6173 54.2085L93.5526 55.5343L103.161 72.1597L105.222 70.8335C106.441 70.143 107.199 68.6187 107.199 66.4612C107.199 62.1027 104.162 56.8652 100.414 54.6937Z" fill="#040606"/>
<path d="M98.2936 56.122L96.9555 55.5062C96.3957 55.3172 95.8556 55.2207 95.3434 55.2207C93.1041 55.2207 91.7144 57.023 91.7144 59.9266C91.7144 63.4366 93.5885 68.3874 97.0746 70.6423C98.8574 71.8025 100.402 72.3857 101.669 72.3857C102.768 72.3857 103.626 71.9375 104.21 71.0441C104.73 70.2452 105.008 69.1176 105.008 67.7871C105.004 63.348 101.994 58.1149 98.2936 56.122Z" fill="white"/>
<path d="M101.664 72.2463C100.43 72.2463 98.9128 71.6678 97.1499 70.5231C93.7075 68.296 91.8493 63.4011 91.8493 59.9269C91.8493 57.107 93.1873 55.3608 95.3433 55.3608C95.8356 55.3608 96.3637 55.4521 96.8839 55.6308L98.2299 56.2494C101.887 58.2192 104.865 63.3932 104.873 67.7873C104.873 68.8328 104.642 72.2463 101.664 72.2463ZM98.3609 56.0028L96.999 55.3763C96.4154 55.1777 95.8595 55.0832 95.3433 55.0832C93.1079 55.0832 91.5713 56.8684 91.5713 59.9269C91.5713 63.7267 93.6479 68.5906 96.999 70.7573C98.9208 72.0045 100.461 72.5254 101.664 72.5254C104.11 72.5254 105.151 70.3603 105.151 67.7873C105.147 63.4476 102.181 58.0611 98.3609 56.0028Z" fill="#040606"/>
<path d="M100.342 75.9081C99.294 75.2955 98.3014 74.9869 97.3762 74.9869C96.7489 74.9869 96.1811 75.1327 95.6927 75.4193L93.6717 76.5597L103.213 93.0557L105.151 91.8105C106.366 91.1141 107.06 89.566 107.06 87.5529C107.06 83.2723 104.047 78.0514 100.342 75.9081Z" fill="white"/>
<path d="M105.067 91.6912L103.257 92.8621L93.9258 76.7179L95.7523 75.5391C96.2287 75.2695 96.7767 75.1249 97.3762 75.1249C98.2736 75.1249 99.2503 75.4323 100.275 76.0262C103.94 78.1481 106.921 83.3205 106.921 87.5531C106.921 89.5106 106.25 91.0198 105.067 91.6912ZM100.414 75.784C99.3218 75.15 98.2895 74.8474 97.3762 74.8474C96.7211 74.8474 96.1295 75.0026 95.6173 75.2957L93.5526 76.6266L103.161 93.2544L105.222 91.9286C106.441 91.2306 107.199 89.7059 107.199 87.5531C107.199 83.1978 104.162 77.9571 100.414 75.784Z" fill="#040606"/>
<path d="M98.2936 77.217L96.9555 76.6028C96.3917 76.4118 95.8477 76.3082 95.3395 76.3082C93.1041 76.3082 91.7144 78.1104 91.7144 81.0168C91.7144 84.5268 93.5885 89.4792 97.0746 91.7341C98.8574 92.8895 100.402 93.4775 101.661 93.4775C102.768 93.4775 103.626 93.0245 104.21 92.1391C104.73 91.337 105.008 90.2094 105.008 88.8789C105.004 84.4366 101.994 79.207 98.2936 77.217Z" fill="white"/>
<path d="M101.664 93.335C100.43 93.335 98.9128 92.7577 97.1499 91.6193C93.7075 89.3827 91.8493 84.491 91.8493 81.0168C91.8493 78.1985 93.1873 76.4475 95.3394 76.4475C95.8357 76.4475 96.3637 76.5468 96.8878 76.7255L98.2299 77.3365C101.887 79.3063 104.865 84.4835 104.873 88.8789C104.873 89.9275 104.642 93.335 101.664 93.335ZM98.3609 77.0943L96.999 76.4678C96.4154 76.2693 95.8595 76.17 95.3394 76.17C93.1079 76.17 91.5713 77.9599 91.5713 81.0168C91.5713 84.8166 93.6479 89.6778 96.999 91.8488C98.9208 93.096 100.461 93.6157 101.664 93.6157C104.11 93.6157 105.151 91.4565 105.151 88.8789C105.147 84.5438 102.181 79.1479 98.3609 77.0943Z" fill="#040606"/>
<path d="M116.975 64.9615C115.931 64.3579 114.934 64.0431 114.013 64.0431C113.385 64.0431 112.818 64.1952 112.325 64.4727L110.308 65.6126L119.845 82.1138L121.783 80.8666C123.014 80.1642 123.693 78.6519 123.693 76.6062C123.693 72.33 120.679 67.1095 116.975 64.9615Z" fill="white"/>
<path d="M121.704 80.7521L119.889 81.9202L110.562 65.7756L112.385 64.6C112.861 64.3256 113.409 64.1874 114.013 64.1874C114.906 64.1874 115.883 64.4884 116.903 65.084C120.572 67.2042 123.554 72.3782 123.554 76.6064C123.554 78.5993 122.903 80.0727 121.704 80.7521ZM117.046 64.8469C115.954 64.2061 114.922 63.9051 114.013 63.9051C113.358 63.9051 112.762 64.0604 112.25 64.3581L110.189 65.6843L119.794 82.3125L121.855 80.9863C123.081 80.2867 123.836 78.762 123.836 76.6064C123.836 72.2543 120.794 67.0105 117.046 64.8469Z" fill="#040606"/>
<path d="M114.934 66.2716L113.588 65.6589C113.024 65.4683 112.48 65.3659 111.972 65.3659C109.736 65.3659 108.351 67.1729 108.351 70.0749C108.351 73.5845 110.229 78.5354 113.707 80.7906C115.494 81.946 117.034 82.5337 118.293 82.5337C119.401 82.5337 120.258 82.081 120.846 81.1924C121.362 80.3983 121.64 79.2659 121.64 77.9366C121.636 73.4979 118.626 68.2648 114.934 66.2716Z" fill="white"/>
<path d="M118.297 82.3915C117.062 82.3915 115.545 81.8162 113.782 80.6763C110.344 78.446 108.486 73.5495 108.486 70.0753C108.486 67.2554 109.824 65.5092 111.972 65.5092C112.468 65.5092 112.996 65.6005 113.52 65.7836L114.866 66.3946C118.523 68.3644 121.501 73.5416 121.505 77.937C121.505 78.9808 121.275 82.3915 118.297 82.3915ZM114.997 66.1528L113.632 65.5247C113.048 65.3262 112.492 65.2269 111.972 65.2269C109.744 65.2269 108.208 67.018 108.208 70.0753C108.208 73.8751 110.28 78.739 113.632 80.9073C115.553 82.1541 117.094 82.6738 118.297 82.6738C120.743 82.6738 121.783 80.5135 121.783 77.937C121.775 73.6004 118.813 68.2048 114.997 66.1528Z" fill="#040606"/>
<path d="M116.975 86.0517C115.931 85.445 114.934 85.1349 114.013 85.1349C113.385 85.1349 112.818 85.2822 112.325 85.5645L110.308 86.7028L119.845 103.206L121.783 101.954C123.014 101.256 123.693 99.7468 123.693 97.7028C123.693 93.4249 120.679 88.1997 116.975 86.0517Z" fill="white"/>
<path d="M121.704 101.843L119.889 103.01L110.562 86.8626L112.385 85.6917C112.861 85.4121 113.409 85.2744 114.013 85.2744C114.906 85.2744 115.883 85.5753 116.903 86.1753C120.572 88.2987 123.554 93.4727 123.554 97.7025C123.554 99.6953 122.903 101.164 121.704 101.843ZM117.046 85.9335C115.954 85.2974 114.922 84.9996 114.013 84.9996C113.358 84.9996 112.762 85.1501 112.25 85.4447L110.189 86.774L119.794 103.404L121.855 102.078C123.081 101.383 123.836 99.8538 123.836 97.7025C123.836 93.3456 120.794 88.1049 117.046 85.9335Z" fill="#040606"/>
<path d="M114.934 87.3626L113.588 86.7468C113.028 86.5574 112.488 86.4613 111.976 86.4613C109.74 86.4613 108.351 88.2636 108.351 91.1624C108.351 94.6724 110.229 99.6276 113.707 101.883C115.494 103.038 117.034 103.622 118.293 103.622C119.401 103.622 120.258 103.173 120.846 102.285C121.362 101.486 121.64 100.358 121.64 99.0289C121.636 94.5886 118.626 89.3523 114.934 87.3626Z" fill="white"/>
<path d="M118.297 103.486C117.062 103.486 115.545 102.908 113.782 101.763C110.344 99.5361 108.486 94.6365 108.486 91.1622C108.486 88.3471 109.824 86.6009 111.972 86.6009C112.468 86.6009 112.996 86.6922 113.52 86.8705L114.866 87.4863C118.523 89.4545 121.501 94.6333 121.505 99.0287C121.505 100.076 121.275 103.486 118.297 103.486ZM114.997 87.2397L113.632 86.6164C113.048 86.4178 112.492 86.323 111.972 86.323C109.744 86.323 108.208 88.1097 108.208 91.1622C108.208 94.9668 110.28 99.8259 113.632 101.997C115.553 103.241 117.094 103.761 118.297 103.761C120.743 103.761 121.783 101.6 121.783 99.0287C121.775 94.6877 118.813 89.3008 114.997 87.2397Z" fill="#040606"/>
<path d="M134.517 74.7403C133.468 74.132 132.472 73.8267 131.555 73.8267C130.927 73.8267 130.355 73.9692 129.863 74.2563L127.85 75.3914L137.391 91.8926L139.329 90.6454C140.544 89.9554 141.235 88.4029 141.235 86.3894C141.235 82.1136 138.225 76.8927 134.517 74.7403Z" fill="white"/>
<path d="M139.246 90.5309L137.435 91.6986L128.104 75.5544L129.927 74.3788C130.403 74.1044 130.951 73.9619 131.555 73.9619C132.448 73.9619 133.425 74.2672 134.449 74.8628C138.114 76.9878 141.1 82.1618 141.1 86.3896C141.1 88.3519 140.429 89.8563 139.246 90.5309ZM134.592 74.621C133.496 73.9865 132.464 73.6839 131.555 73.6839C130.896 73.6839 130.3 73.8392 129.788 74.137L127.731 75.4583L137.34 92.0913L139.397 90.7652C140.615 90.0703 141.378 88.5425 141.378 86.3896C141.378 82.0347 138.34 76.7936 134.592 74.621Z" fill="#040606"/>
<path d="M132.472 76.0537L131.13 75.4351C130.57 75.2488 130.026 75.1448 129.514 75.1448C127.282 75.1448 125.889 76.9518 125.889 79.8535C125.889 83.3634 127.771 88.3159 131.253 90.5711C133.036 91.7266 134.58 92.3174 135.839 92.3174C136.943 92.3174 137.8 91.8616 138.384 90.9757C138.908 90.1741 139.186 89.0417 139.186 87.7155C139.174 83.2721 136.164 78.0437 132.472 76.0537Z" fill="white"/>
<path d="M135.839 92.1751C134.604 92.1751 133.087 91.595 131.324 90.4566C127.886 88.22 126.028 83.328 126.028 79.8537C126.028 77.039 127.362 75.2848 129.514 75.2848C130.01 75.2848 130.538 75.3841 131.062 75.5576L132.408 76.1782C136.057 78.1385 139.039 83.3204 139.051 87.7126C139.051 88.7596 138.817 92.1751 135.839 92.1751ZM132.539 75.9316L131.174 75.3047C130.594 75.1062 130.034 75.0101 129.514 75.0101C127.282 75.0101 125.75 76.7936 125.75 79.8537C125.75 83.6583 127.826 88.5147 131.174 90.6861C133.099 91.9329 134.636 92.4526 135.839 92.4526C138.285 92.4526 139.329 90.2935 139.329 87.7126C139.317 83.3808 136.359 77.988 132.539 75.9316Z" fill="#040606"/>
<path d="M134.517 95.8327C133.468 95.2244 132.472 94.9191 131.551 94.9191C130.927 94.9191 130.352 95.0664 129.863 95.3439L127.85 96.4838L137.391 112.99L139.329 111.735C140.544 111.043 141.235 109.498 141.235 107.482C141.235 103.206 138.225 97.9807 134.517 95.8327Z" fill="white"/>
<path d="M139.246 111.622L137.435 112.79L128.104 96.6457L129.927 95.4657C130.403 95.1925 130.951 95.0575 131.551 95.0575C132.444 95.0575 133.425 95.3553 134.449 95.9541C138.114 98.0791 141.1 103.248 141.1 107.481C141.1 109.442 140.429 110.951 139.246 111.622ZM134.592 95.7123C133.496 95.0762 132.464 94.7784 131.551 94.7784C130.896 94.7784 130.3 94.9336 129.788 95.2283L127.731 96.5544L137.34 113.183L139.397 111.852C140.615 111.162 141.378 109.637 141.378 107.481C141.378 103.124 138.34 97.8838 134.592 95.7123Z" fill="#040606"/>
<path d="M132.472 97.1427L131.13 96.5272C130.57 96.3362 130.026 96.2402 129.514 96.2402C127.282 96.2402 125.889 98.044 125.889 100.946C125.889 104.453 127.771 109.403 131.253 111.663C133.036 112.822 134.58 113.405 135.839 113.405C136.943 113.405 137.8 112.957 138.384 112.064C138.908 111.265 139.186 110.137 139.186 108.811C139.174 104.364 136.164 99.1311 132.472 97.1427Z" fill="white"/>
<path d="M135.839 113.267C134.604 113.267 133.091 112.687 131.324 111.544C127.886 109.312 126.028 104.415 126.028 100.946C126.028 98.1261 127.362 96.3798 129.514 96.3798C130.01 96.3798 130.538 96.4711 131.066 96.6494L132.408 97.27C136.057 99.235 139.039 104.407 139.051 108.808C139.051 109.856 138.817 113.267 135.839 113.267ZM132.539 97.0234L131.174 96.3997C130.59 96.1968 130.034 96.1019 129.514 96.1019C127.282 96.1019 125.75 97.8886 125.75 100.946C125.75 104.746 127.826 109.605 131.174 111.778C133.099 113.025 134.636 113.544 135.839 113.544C138.285 113.544 139.329 111.381 139.329 108.808C139.317 104.471 136.359 99.0798 132.539 97.0234Z" fill="#040606"/>
<path d="M40.2304 146.65L44.7071 155.749C46.1153 158.626 49.4351 160.557 54.2777 160.919C64.0552 161.611 76.426 155.557 81.8977 147.402C84.6747 143.274 85.1771 139.425 83.7453 136.499L79.2704 127.428C80.6928 130.334 80.1902 134.184 77.4421 138.297C71.9415 146.466 59.5707 152.521 49.8028 151.824C44.9487 151.463 41.6406 149.531 40.2304 146.65Z" fill="white"/>
<mask id="mask1_2220_330" style="mask-type:luminance" maskUnits="userSpaceOnUse" x="40" y="127" width="45" height="34">
<path d="M40.2304 146.65L44.7071 155.749C46.1153 158.626 49.4351 160.557 54.2777 160.919C64.0552 161.611 76.426 155.557 81.8977 147.402C84.6747 143.274 85.1771 139.425 83.7453 136.499L79.2704 127.428C80.6928 130.334 80.1902 134.184 77.4364 138.286C71.9415 146.466 59.5707 152.521 49.7972 151.812C44.9487 151.463 41.6406 149.531 40.2304 146.65Z" fill="white"/>
</mask>
<g mask="url(#mask1_2220_330)">
<path d="M77.6551 138.44C74.9799 142.434 70.6019 146.046 65.336 148.623C60.0796 151.195 54.5513 152.432 49.7848 152.08C45.3593 151.766 42.0507 150.15 40.3871 147.482L44.9573 155.626C46.3745 158.522 49.697 160.312 54.2996 160.647C58.9848 160.979 64.4073 159.77 69.5867 157.236C74.7564 154.706 79.0475 151.16 81.6693 147.252C84.3106 143.359 84.9567 139.584 83.5046 136.617L79.8822 129.263C80.7215 131.905 79.8695 135.138 77.6551 138.44Z" fill="white"/>
</g>
<mask id="mask2_2220_330" style="mask-type:luminance" maskUnits="userSpaceOnUse" x="40" y="127" width="45" height="34">
<path d="M40.2304 146.65L44.7071 155.749C46.1153 158.626 49.4351 160.557 54.2777 160.919C64.0552 161.611 76.426 155.557 81.8977 147.402C84.6747 143.274 85.1771 139.425 83.7453 136.499L79.2704 127.428C80.6928 130.334 80.1902 134.184 77.4364 138.286C71.9415 146.466 59.5707 152.521 49.7972 151.812C44.9487 151.463 41.6406 149.531 40.2304 146.65Z" fill="white"/>
</mask>
<g mask="url(#mask2_2220_330)">
<path d="M81.4511 147.099C78.858 150.968 74.6003 154.484 69.4594 157C64.3379 159.506 58.9493 160.711 54.3125 160.38C49.809 160.053 46.5633 158.322 45.1885 155.513L42.5065 150.057C44.342 151.345 46.8029 152.131 49.7592 152.344C54.5832 152.692 60.1552 151.447 65.4501 148.856C70.7546 146.26 75.1658 142.619 77.8701 138.587C79.5703 136.063 80.4721 133.565 80.5745 131.287L83.264 136.734C84.6685 139.604 84.0237 143.285 81.4511 147.099ZM77.4421 138.297C74.689 142.376 70.2206 145.925 65.2145 148.374C60.2181 150.82 54.684 152.166 49.8029 151.824C44.9737 151.465 41.6592 149.545 40.2489 146.687L44.7071 155.748C46.1154 158.626 49.4352 160.557 54.2778 160.919C59.1704 161.26 64.7082 159.921 69.695 157.481C74.6914 155.036 79.1561 151.48 81.8977 147.402C84.6747 143.274 85.1772 139.425 83.7454 136.499L79.2704 127.428C80.6928 130.334 80.1902 134.184 77.4421 138.297Z" fill="#040606"/>
</g>
<path d="M69.6815 122.513C64.9949 122.178 59.5646 123.395 54.3949 125.925C49.2156 128.46 44.913 132.006 42.283 135.922C39.6744 139.808 39.0341 143.572 40.4619 146.513C41.8937 149.439 45.2141 151.226 49.8227 151.548C54.5001 151.889 59.9305 150.671 65.1002 148.141C70.2795 145.607 74.5821 142.061 77.2116 138.144C79.8144 134.27 80.4603 130.518 79.0325 127.576C77.6103 124.646 74.2841 122.848 69.6815 122.513Z" fill="white"/>
<path d="M76.9935 137.991C74.3778 141.863 70.1196 145.377 64.9788 147.893C59.8476 150.404 54.4691 151.606 49.8408 151.292C45.3373 150.965 42.0883 149.227 40.7027 146.396C39.3039 143.538 39.9429 139.87 42.4962 136.065C45.1138 132.197 49.3664 128.671 54.5072 126.155C59.6384 123.644 65.0224 122.454 69.654 122.774C74.1575 123.101 77.4026 124.855 78.7882 127.687C80.1718 130.538 79.5428 134.203 76.9935 137.991ZM69.6921 122.242C64.8109 121.9 59.2737 123.24 54.2773 125.685C49.2713 128.135 44.806 131.69 42.0529 135.769C36.5716 143.929 40.029 151.14 49.8027 151.824C54.6838 152.167 60.2179 150.82 65.2143 148.375C70.2204 145.925 74.6888 142.376 77.4419 138.297C82.9174 130.15 79.4407 122.949 69.6921 122.242Z" fill="#040606"/>
<path d="M45.1153 134.321L44.2165 135.069L74.0165 137.978L75.1509 137.712L76.0478 136.984L46.2478 134.075L45.1153 134.321Z" fill="white"/>
<path d="M75.8193 136.834L75.033 137.471L74.0236 137.7L44.6575 135.677L44.3181 135.569L44.4255 135.228L45.2234 134.566L46.2219 134.339L75.5934 136.348L75.9326 136.481L75.8193 136.834ZM46.2697 133.802L44.9878 134.085L43.9881 134.919L44.6232 136.217L73.9906 138.242L75.2634 137.942L76.2722 137.126L75.632 135.817L46.2697 133.802Z" fill="#040606"/>
<path d="M108.501 112.03C101.481 107.659 92.1995 109.872 87.8524 116.853L87.8762 116.869L78.0318 132.615L65.316 152.708C60.9451 159.72 63.063 168.938 70.0912 173.317C77.1195 177.696 86.3451 175.546 90.7239 168.526L90.7477 168.502L103.464 148.456L113.284 132.702C117.631 125.713 115.537 116.408 108.501 112.03Z" fill="#1B191A"/>
<path d="M86.1547 135.082C83.1403 135.082 80.8638 136.066 79.7532 137.859L67.0373 157.944C62.7299 164.861 64.8399 173.984 71.7412 178.291C74.0893 179.751 76.7944 180.52 79.547 180.52H79.5549C84.6873 180.52 89.3833 177.918 92.1279 173.531L104.836 153.486C106.018 151.606 105.836 149.012 104.336 146.188C101.203 140.286 93.2226 135.312 86.1547 135.082Z" fill="white"/>
<path d="M104.677 153.382L91.9377 173.46C89.2565 177.759 84.6239 180.329 79.5471 180.329C76.8341 180.329 74.1688 179.56 71.8446 178.116C65.0384 173.872 62.952 164.869 67.196 158.055L79.9199 137.962C80.9987 136.232 83.2118 135.28 86.1548 135.28H86.5198C93.1515 135.51 101.06 140.437 104.162 146.275C105.629 149.035 105.812 151.558 104.677 153.382ZM86.5357 134.892L86.1548 134.884C82.9897 134.884 80.6973 135.955 79.5868 137.755L66.8629 157.84C62.492 164.853 64.61 174.071 71.6383 178.457C74.1053 179.988 76.8421 180.726 79.5471 180.726C84.5525 180.726 89.4311 178.219 92.271 173.666L92.2948 173.626L105.011 153.597C106.177 151.725 106.105 149.075 104.511 146.092C101.346 140.127 93.3102 135.114 86.5357 134.892Z" fill="#1B191A"/>
<path d="M110.056 117.162C103.028 112.783 93.7464 115.012 89.3994 121.993L89.4232 122.009L79.5869 137.755C78.3891 139.659 78.4842 142.317 80.0786 145.26C83.2437 151.28 91.2793 156.286 98.0538 156.46C101.417 156.603 103.821 155.508 105.011 153.597L114.831 137.835C119.178 130.846 117.084 121.549 110.056 117.162Z" fill="#F2A65A"/>
<path d="M50.5833 142.933C41.0717 143.994 40.362 144.856 39.4865 156.39C38.611 144.856 37.9013 143.994 28.3897 142.933C37.9013 141.871 38.611 141.013 39.4865 129.476C40.362 141.013 41.0717 141.871 50.5833 142.933Z" fill="white"/>
<path d="M29.5133 142.933C37.6261 143.914 38.6766 145.1 39.4865 154.759C40.2963 145.1 41.3469 143.914 49.4597 142.933C41.3469 141.954 40.2963 140.768 39.4865 131.106C38.6766 140.768 37.6261 141.954 29.5133 142.933ZM39.4865 156.521C39.4191 156.521 39.3627 156.467 39.3577 156.402C38.4825 144.868 37.8667 144.122 28.3754 143.061C28.3101 143.055 28.2609 142.998 28.2609 142.933C28.2609 142.867 28.3101 142.813 28.3754 142.804C37.8667 141.746 38.4825 140.997 39.3577 129.466C39.3627 129.398 39.4191 129.347 39.4865 129.347C39.5539 129.347 39.6102 129.398 39.6153 129.466C40.4905 140.997 41.1062 141.746 50.5976 142.804C50.6629 142.813 50.7121 142.867 50.7121 142.933C50.7121 142.998 50.6629 143.055 50.5976 143.061C41.1062 144.122 40.4905 144.868 39.6153 156.402C39.6102 156.467 39.5539 156.521 39.4865 156.521Z" fill="#2D2D2D"/>
<path d="M172.316 68.8741C159.102 70.3489 158.116 71.5461 156.9 87.5698C155.683 71.5461 154.698 70.3489 141.483 68.8741C154.698 67.3993 155.683 66.2062 156.9 50.1783C158.116 66.2062 159.102 67.3993 172.316 68.8741Z" fill="white"/>
<path d="M143.044 68.8739C154.315 70.2369 155.775 71.8856 156.9 85.3036C158.025 71.8856 159.484 70.2369 170.755 68.8739C159.484 67.5152 158.025 65.8664 156.9 52.4442C155.775 65.8664 154.315 67.5152 143.044 68.8739ZM156.9 87.752C156.806 87.752 156.728 87.6774 156.721 87.5862C155.505 71.5625 154.649 70.5269 141.463 69.0521C141.373 69.0438 141.304 68.9651 141.304 68.8739C141.304 68.7828 141.373 68.7082 141.463 68.6958C154.649 67.2252 155.505 66.1854 156.721 50.1658C156.728 50.0705 156.806 50.0001 156.9 50.0001C156.993 50.0001 157.072 50.0705 157.079 50.1658C158.295 66.1854 159.15 67.2252 172.336 68.6958C172.427 68.7082 172.495 68.7828 172.495 68.8739C172.495 68.9651 172.427 69.0438 172.336 69.0521C159.15 70.5269 158.295 71.5625 157.079 87.5862C157.072 87.6774 156.993 87.752 156.9 87.752Z" fill="#2D2D2D"/>
</g>
</svg>
