<svg width="76" height="42" viewBox="0 0 76 42" fill="none" xmlns="http://www.w3.org/2000/svg">
<path d="M38.1044 24.6318L42.2628 15.0009C42.568 14.2929 43.2022 13.8438 43.8962 13.8438C45.2186 13.8438 46.0981 15.4024 45.5477 16.7705L42.2389 25.0333C41.5987 26.8234 40.6653 28.3412 41.6585 28.3412C43.0526 28.3412 46.6067 23.4406 49.2214 17.1516C49.5146 16.9542 49.8617 17.0835 49.8018 17.4851C46.0802 26.1564 42.0594 32.1799 39.3848 32.1799C36.3572 32.1799 36.3572 28.4705 38.1044 24.6318ZM43.603 9.0793C43.3398 7.05105 44.8236 5.36308 46.6007 5.66937C47.7076 5.85995 48.6111 6.8877 48.7786 8.14687C49.042 10.1684 47.558 11.8563 45.781 11.5569C44.6741 11.373 43.7706 10.3385 43.603 9.0793Z" fill="#F2A65A"/>
<path d="M45.9545 24.6321L55.8808 1.16391C56.18 0.456054 56.8143 0.00683594 57.5024 0.00683594C58.8187 0.00683594 59.6923 1.56549 59.1358 2.91994L50.089 25.0268C49.4488 26.8169 48.5154 28.3347 49.5086 28.3347C50.9028 28.3347 54.4568 23.4342 57.0716 17.1451C57.3648 16.9477 57.7118 17.0771 57.652 17.4786C53.9303 26.1499 49.9095 32.1735 47.235 32.1735C44.2074 32.1735 44.2074 28.4641 45.9545 24.6253V24.6321Z" fill="#F2A65A"/>
<path d="M53.8107 24.632L63.737 1.16388C64.0362 0.456024 64.6704 0 65.3584 0C66.6748 0 67.5483 1.55865 66.9919 2.9131L57.9451 25.02C57.3049 26.8101 56.3715 28.3279 57.3648 28.3279C58.7588 28.3279 62.3129 23.4273 64.9276 17.1383C65.2208 16.9409 65.5679 17.0702 65.508 17.4718C61.7864 26.143 57.7657 32.1666 55.0911 32.1666C52.0635 32.1666 52.0635 28.4572 53.8107 24.6184V24.632Z" fill="#F2A65A"/>
<path d="M74.0641 19.8678C73.8308 20.8616 73.4838 21.9846 73.0171 23.1757C70.8631 28.6071 67.0218 32.3098 63.5335 32.0443C60.3922 31.7789 60.0392 26.8783 62.2531 21.7804C64.6404 16.2877 68.015 13.1772 71.2759 12.973C73.6632 12.905 74.9437 14.7631 74.3573 18.4045M70.9229 21.9165C72.7299 16.4851 72.0897 14.239 71.2161 14.239C69.9955 14.239 68.4817 16.2877 66.6209 21.3244C64.9935 25.8234 65.1669 28.9338 66.6807 28.9338C67.7876 28.9338 69.2416 26.8851 70.9289 21.9165H70.9229Z" fill="#F2A65A"/>
<path d="M27.4661 7.58741L9.36957 7.60631C9.11793 7.60668 8.86103 7.62098 8.6049 7.64887L8.51529 7.65386C6.2822 7.90769 4.20552 9.14128 2.65065 11.1366C0.900301 13.3881 -0.0426161 16.365 0.00147951 19.5256C0.0672445 24.2596 2.36111 28.5424 5.85221 30.434C6.26609 30.6565 6.53002 31.0916 6.55015 31.5609C6.62484 33.6563 6.16302 36.3406 5.09103 40.0133L5.04634 40.1793L5.04385 40.3499C5.05249 40.9356 5.40981 41.4338 5.91474 41.5693C6.01781 41.5908 6.12051 41.6056 6.21609 41.6002C6.52077 41.5833 6.79959 41.4246 6.9887 41.1619C11.0549 37.4521 13.4762 34.6588 14.8328 32.1156C15.0439 31.7084 15.3951 31.4503 15.8428 31.4185L27.7858 31.415C27.9295 31.4138 28.0729 31.4058 28.2102 31.3982C30.6118 31.2645 32.8383 30.0294 34.5102 27.8777C35.3824 26.7521 36.0589 25.4464 36.507 24.024C36.9492 22.6019 37.1755 21.0692 37.1535 19.4889C37.0696 12.9222 32.7213 7.58119 27.4661 7.58741ZM13.2985 31.0353C12.2567 32.9883 10.398 35.2323 7.51442 38.0105C8.1417 35.392 8.40791 33.2844 8.34464 31.5019C8.30007 30.2705 7.63276 29.1556 6.60664 28.5924C3.73934 27.0342 1.85151 23.4786 1.79938 19.5277C1.75938 16.8714 2.5432 14.3737 3.99735 12.5067C5.24445 10.9035 6.9031 9.9114 8.66462 9.69059L8.67657 9.68996L14.603 9.68728C18.8336 9.68353 22.4228 13.9829 22.6036 19.2763C22.6147 19.5825 22.6138 19.8893 22.6006 20.19C22.6006 20.299 22.5947 20.4084 22.5832 20.5249C22.5773 20.6344 22.5718 20.7505 22.5603 20.8671C22.5492 20.9904 22.5381 21.1137 22.521 21.2374C22.5173 21.2785 22.5133 21.3128 22.5091 21.3471C22.4924 21.4775 22.4697 21.6083 22.447 21.739C22.4337 21.8216 22.4207 21.911 22.4013 21.9938C22.3797 22.145 22.3463 22.2968 22.3124 22.4419C22.2789 22.5937 22.2394 22.7459 22.1999 22.8981C22.2003 22.9049 22.1948 22.912 22.1951 22.9188C22.1553 23.0642 22.1154 23.2095 22.0696 23.3552C22.0238 23.501 21.9723 23.6538 21.9202 23.793C21.8684 23.939 21.8106 24.0854 21.7525 24.225C21.7052 24.3435 21.6574 24.4553 21.6041 24.5741C21.54 24.714 21.4699 24.8543 21.3998 24.9945C21.2868 25.2258 21.1559 25.458 21.0243 25.6766C20.8318 25.9873 20.6266 26.285 20.4088 26.5699C19.9332 27.1757 19.3993 27.7031 18.829 28.1165C17.8736 28.8242 16.8071 29.2585 15.6998 29.3882L15.6878 29.3889C14.7084 29.4503 13.8194 30.0587 13.2985 31.0353Z" fill="#F2A65A"/>
<path d="M8.96661 25.0678C8.63154 24.8159 8.2905 24.571 7.95543 24.319C7.88363 24.2646 7.81782 24.2102 7.74601 24.1626C7.72806 24.1489 7.71012 24.1353 7.69814 24.1285C7.8597 24.251 7.65627 24.0877 7.6084 24.0469C7.26735 23.7337 6.94425 23.407 6.63312 23.0531C6.36985 22.7468 6.14248 22.4474 5.9929 22.2091C5.81341 21.9165 5.65185 21.6033 5.51423 21.2766C5.49629 21.229 5.47834 21.1882 5.46038 21.1405C5.4903 21.2154 5.4903 21.229 5.47236 21.1678C5.44244 21.0861 5.41252 21.0044 5.38859 20.9228C5.33474 20.7525 5.28687 20.5824 5.24499 20.4122C5.14925 20.0175 5.07746 19.6159 5.0236 19.2143C4.95779 18.7583 4.46118 18.5065 4.10218 18.6222C3.67736 18.7515 3.51581 19.2143 3.58163 19.6704C3.82694 21.4059 4.43724 22.917 5.52022 24.1897C6.01085 24.7615 6.55533 25.3128 7.14768 25.7484C7.5007 26.0139 7.8597 26.2725 8.21271 26.5379C8.56573 26.8034 9.03837 26.6196 9.23586 26.2317C9.44524 25.8165 9.30762 25.3196 8.96661 25.0678Z" fill="#F2A65A"/>
</svg>
