<svg width="200" height="200" viewBox="0 0 200 200" fill="none" xmlns="http://www.w3.org/2000/svg">
<mask id="mask0_2220_224" style="mask-type:alpha" maskUnits="userSpaceOnUse" x="0" y="0" width="200" height="200">
<rect width="200" height="200" fill="#D9D9D9"/>
</mask>
<g mask="url(#mask0_2220_224)">
<path d="M55.3733 135.139C55.3733 135.139 56.0066 131.23 54.6503 129.85L55.3733 135.139Z" fill="#E2E1DF"/>
<path d="M55.6535 135.184L55.0937 135.094C55.0994 135.056 55.6875 131.31 54.4475 130.049L54.8522 129.651C56.2925 131.117 55.6802 135.018 55.6535 135.184Z" fill="#3B3C3D"/>
<path d="M146.081 152.215L77.0559 192.067L77.0438 192.06V60.87L77.0479 60.8628L146.073 21.0115L146.085 21.0188V152.208L146.081 152.215Z" fill="#F2A65A"/>
<path d="M77.3273 61.0291V191.582L145.801 152.049V21.4945L77.3273 61.0291ZM77.0591 192.392L76.7643 192.234L76.7603 192.06V60.6947L76.921 60.6091L146.077 20.681L146.365 20.8539L146.368 21.0187V152.383L146.22 152.462L77.0591 192.392Z" fill="#3B3C3D"/>
<path d="M142.268 147.874L80.8688 183.324L80.8559 183.316V65.943L80.8599 65.9357L142.26 30.487L142.273 30.4935V147.867L142.268 147.874Z" fill="#E2E1DF"/>
<path d="M81.1394 66.1021V182.84L141.988 147.708V30.971L81.1394 66.1021ZM80.8721 183.649L80.5772 183.491L80.5724 183.317V65.7677L80.7339 65.6821L142.261 30.1591L142.552 30.3239L142.555 30.4936V148.02L142.41 148.12L80.8721 183.649Z" fill="#3B3C3D"/>
<path d="M125.054 40.32V137.78L125.049 137.787L80.8599 163.3L80.8559 163.307V183.21L80.8688 183.217L142.268 147.769L142.273 147.761V30.3879L142.26 30.3806L125.058 40.3119L125.054 40.32Z" fill="#1B191A"/>
<path d="M81.1394 163.465V182.735L141.988 147.602V30.8642L125.338 40.478V137.955L125.177 138.04L81.1394 163.465ZM80.8632 183.547L80.5764 183.375L80.5724 183.211V163.131L80.7339 163.046L124.771 137.621V40.1678L124.901 40.0757L142.265 30.0499L142.552 30.222L142.555 30.3876V147.913L142.426 148.005L80.8632 183.547Z" fill="#3B3C3D"/>
<path d="M54.1681 179L77.0309 192.067L77.0438 192.06V60.87L77.0398 60.8628L54.1769 47.7971L54.164 47.8044V178.993L54.1681 179Z" fill="white"/>
<path d="M54.4476 178.833L76.7603 191.585V61.0291L54.4476 48.2785V178.833ZM77.0535 192.392L76.9041 192.321L53.8845 179.176L53.8805 178.993V47.6404L54.1673 47.4691L54.3175 47.5499L77.3226 60.6979L77.3274 60.87V192.218L77.0535 192.392Z" fill="#3B3C3D"/>
<path d="M123.21 7.93135L146.073 20.997V21.0115L77.0478 60.8628H77.0397L54.1769 47.7971V47.7826L123.201 7.93135H123.21Z" fill="white"/>
<path d="M54.7327 47.789L77.0438 60.5388L145.515 21.0058L123.206 8.25522L54.7327 47.789ZM77.0575 61.1851L76.9121 61.1164L53.8885 47.9595L53.8934 47.6226L54.0355 47.5362L123.192 7.60897L123.351 7.6849L146.359 20.8346L146.36 21.0115L146.356 21.1819L146.199 21.2651L77.0575 61.1851Z" fill="#3B3C3D"/>
<path d="M142.26 147.759L125.058 137.787H125.049L80.8607 163.3L80.8559 163.307V183.21L80.8688 183.217L142.26 147.773V147.759Z" fill="white"/>
<path d="M81.1394 163.465V182.734L141.706 147.766L125.052 138.112L81.1394 163.465ZM80.864 183.547L80.5764 183.375L80.5724 183.211V163.131L80.7339 163.046L125.06 137.452L125.215 137.55L142.543 147.584L142.547 147.941L142.387 148.026L80.864 183.547Z" fill="#3B3C3D"/>
<path d="M142.273 130.02V127.23L142.26 127.222L80.8607 162.671L80.8559 162.678V165.469L80.8688 165.477L142.268 130.027L142.273 130.02Z" fill="#F2A65A"/>
<path d="M81.1394 162.837V164.994L141.988 129.862V127.706L81.1394 162.837ZM80.864 165.807L80.5764 165.635L80.5724 165.469V162.504L80.7339 162.418L142.265 126.892L142.552 127.064L142.556 127.23V130.173L142.426 130.264L80.864 165.807Z" fill="#3B3C3D"/>
<path d="M142.26 127.208L125.058 117.236H125.049L80.8607 142.749L80.8559 142.756V162.66L80.8688 162.667L142.26 127.223V127.208Z" fill="white"/>
<path d="M81.1394 142.914V162.183L141.706 127.215L125.052 117.561L81.1394 142.914ZM80.864 162.998L80.5764 162.826L80.5724 162.66V142.581L80.7339 142.495L125.06 116.902L125.215 117L142.543 127.034L142.547 127.391L142.387 127.475L80.864 162.998Z" fill="#3B3C3D"/>
<path d="M106.477 140.433L106.479 133.531L106.427 133.478H105.222C104.018 132.925 102.316 132.925 101.111 133.478H99.9074L99.8549 133.53L99.8573 140.433C99.8485 141.238 100.526 142.132 102.451 142.406C103.249 142.52 104.073 142.465 104.834 142.2C106.034 141.784 106.488 141.12 106.477 140.433Z" fill="#F2A65A"/>
<path d="M100.138 133.762L100.14 140.432C100.131 141.282 101.01 141.914 102.491 142.126C103.275 142.237 104.053 142.171 104.741 141.931C105.411 141.699 106.206 141.252 106.193 140.437L106.195 133.762L105.103 133.736C103.982 133.221 102.353 133.221 101.23 133.736L101.112 133.762H100.138ZM103.226 142.746C102.957 142.746 102.685 142.726 102.412 142.687C99.7604 142.309 99.569 140.863 99.573 140.43L99.5714 133.53C99.5714 133.345 99.7225 133.195 99.9066 133.195H101.051C102.307 132.641 104.027 132.643 105.283 133.195H106.427C106.612 133.195 106.763 133.345 106.763 133.53L106.76 140.43C106.767 140.952 106.54 141.909 104.927 142.468C104.396 142.652 103.819 142.746 103.226 142.746Z" fill="#3B3C3D"/>
<path d="M106.876 135.152L106.879 133.659L106.821 133.601H105.47C104.12 132.981 102.214 132.981 100.864 133.601H99.514L99.4559 133.659L99.4583 135.152C99.4486 136.055 100.208 137.056 102.366 137.364C103.26 137.493 104.182 137.43 105.035 137.133C106.38 136.667 106.889 135.923 106.876 135.152Z" fill="#F1DEC7"/>
<path d="M99.7402 133.885L99.741 135.153C99.7321 136.123 100.728 136.844 102.405 137.083C103.29 137.209 104.166 137.134 104.943 136.864C106.034 136.486 106.604 135.896 106.593 135.157L106.595 133.885L105.353 133.859C104.085 133.276 102.248 133.277 100.983 133.859L100.864 133.885H99.7402ZM103.235 137.709C102.934 137.709 102.63 137.688 102.326 137.645C99.3831 137.225 99.1699 135.629 99.1739 135.15L99.1723 133.659C99.1723 133.471 99.3258 133.318 99.514 133.318H100.802C102.206 132.697 104.128 132.698 105.532 133.318H106.821C107.009 133.318 107.163 133.471 107.163 133.659L107.16 135.15C107.169 135.725 106.914 136.78 105.128 137.401C104.537 137.605 103.895 137.709 103.235 137.709Z" fill="#3B3C3D"/>
<path d="M105.797 132.204C107.25 133.043 107.25 134.402 105.797 135.241C104.345 136.079 101.99 136.079 100.538 135.241C99.0851 134.402 99.0851 133.043 100.538 132.204C101.99 131.366 104.345 131.366 105.797 132.204Z" fill="white"/>
<path d="M103.167 131.856C102.266 131.856 101.366 132.053 100.68 132.449C100.068 132.802 99.7322 133.255 99.7322 133.723C99.7322 134.19 100.068 134.642 100.68 134.995C102.051 135.786 104.283 135.786 105.655 134.995C106.267 134.642 106.603 134.19 106.603 133.723C106.603 133.255 106.267 132.802 105.655 132.45C104.969 132.053 104.069 131.856 103.167 131.856ZM103.167 136.147C102.164 136.147 101.16 135.928 100.396 135.487C99.6021 135.028 99.1643 134.402 99.1643 133.723C99.1643 133.044 99.6021 132.417 100.396 131.958C101.923 131.077 104.41 131.077 105.939 131.958C106.733 132.417 107.17 133.044 107.17 133.723C107.17 134.402 106.733 135.028 105.939 135.487C105.174 135.928 104.171 136.147 103.167 136.147Z" fill="#3B3C3D"/>
<path d="M105.849 136.77H105.282V135.224H105.849V136.77Z" fill="#3B3C3D"/>
<path d="M101.021 136.945H100.454V135.399H101.021V136.945Z" fill="#3B3C3D"/>
<path d="M105.319 142.125H104.752V137.133H105.319V142.125Z" fill="#3B3C3D"/>
<path d="M97.6981 168.58L97.6998 162.037L97.6642 162.001H96.8378C96.0114 161.622 94.8449 161.622 94.0185 162.001H93.1921L93.1566 162.037L93.1582 168.58C93.1525 169.133 93.617 169.745 94.937 169.933C95.4847 170.012 96.0494 169.973 96.5712 169.792C97.3944 169.507 97.7062 169.051 97.6981 168.58Z" fill="#F2A65A"/>
<path d="M93.4401 162.285L93.4417 168.58C93.4353 169.115 94.0104 169.514 94.9774 169.653C95.5 169.728 96.0203 169.683 96.4783 169.524C96.9097 169.375 97.4226 169.09 97.4146 168.584L97.4162 162.285L96.7199 162.259C95.971 161.915 94.8861 161.915 94.1365 162.259L94.0185 162.285H93.4401ZM95.4702 170.256C95.2803 170.256 95.0889 170.241 94.8974 170.214C93.0063 169.945 92.8706 168.894 92.8746 168.577L92.873 161.754L93.1929 161.718H93.9579C94.8344 161.339 96.0227 161.34 96.8984 161.718H97.9477L97.9833 162.037L97.9817 168.579C97.9865 168.961 97.8225 169.658 96.6649 170.06C96.2909 170.19 95.8854 170.256 95.4702 170.256Z" fill="#3B3C3D"/>
<path d="M97.9719 163.15L97.9736 162.126L97.934 162.086H97.0082C96.0816 161.661 94.7746 161.661 93.8488 162.086H92.9231L92.8827 162.126L92.8843 163.15C92.8778 163.769 93.3981 164.455 94.878 164.667C95.4919 164.755 96.1245 164.711 96.7093 164.508C97.6318 164.189 97.9808 163.678 97.9719 163.15Z" fill="#F1DEC7"/>
<path d="M93.167 162.369L93.1679 163.15C93.1614 163.766 93.8157 164.229 94.9184 164.385C95.5097 164.47 96.097 164.42 96.6164 164.239C97.1108 164.068 97.6981 163.741 97.6884 163.153L97.69 162.369L96.8903 162.343C96.0421 161.955 94.815 161.955 93.9668 162.343L93.8488 162.369H93.167ZM95.4742 164.993C95.2633 164.993 95.0509 164.978 94.8384 164.947C92.7486 164.649 92.5975 163.494 92.6 163.146L92.5992 161.842L92.9231 161.802H93.7883C94.7641 161.377 96.0921 161.377 97.0688 161.802H98.2175L98.2571 162.126L98.2555 163.147C98.262 163.566 98.081 164.333 96.803 164.776C96.387 164.92 95.9362 164.993 95.4742 164.993Z" fill="#3B3C3D"/>
<path d="M97.232 161.127C98.228 161.703 98.228 162.635 97.232 163.21C96.2359 163.785 94.6203 163.785 93.6243 163.21C92.6282 162.635 92.6282 161.703 93.6243 161.127C94.6203 160.552 96.2359 160.552 97.232 161.127Z" fill="#F2A65A"/>
<path d="M95.4281 160.983C94.823 160.983 94.2172 161.113 93.7664 161.373C93.3754 161.598 93.1605 161.881 93.1605 162.169C93.1605 162.456 93.3754 162.739 93.7664 162.963C94.6679 163.485 96.189 163.485 97.0906 162.963C97.4799 162.739 97.6948 162.456 97.6948 162.169C97.6948 161.881 97.4799 161.598 97.0906 161.374C96.6398 161.113 96.0339 160.983 95.4281 160.983ZM95.4281 163.928C94.7285 163.928 94.0281 163.77 93.4829 163.454C92.9101 163.125 92.5934 162.668 92.5934 162.169C92.5934 161.67 92.9101 161.213 93.4829 160.882C94.5726 160.252 96.2811 160.252 97.3741 160.882C97.9468 161.213 98.2627 161.67 98.2627 162.169C98.2627 162.668 97.9468 163.125 97.3741 163.455C96.828 163.77 96.1277 163.928 95.4281 163.928Z" fill="#3B3C3D"/>
<path d="M96.7401 169.806H96.173V164.574H96.7401V169.806Z" fill="#3B3C3D"/>
<path d="M102.425 147.25L102.427 139.842L102.387 139.802H101.451C100.516 139.372 99.195 139.372 98.2595 139.802H97.3241L97.2837 139.842L97.2853 147.25C97.2788 147.875 97.8047 148.569 99.2992 148.783C99.9196 148.871 100.558 148.827 101.15 148.622C102.081 148.299 102.434 147.783 102.425 147.25Z" fill="white"/>
<path d="M97.5672 140.086L97.5689 147.249C97.5616 147.876 98.224 148.342 99.3396 148.502C99.939 148.586 100.533 148.536 101.057 148.354C101.557 148.181 102.151 147.85 102.141 147.254L102.144 140.086L101.333 140.06C100.476 139.666 99.2338 139.666 98.3775 140.06L98.2587 140.086H97.5672ZM99.9026 149.11C99.6894 149.11 99.4745 149.094 99.2596 149.063C97.1496 148.762 96.9977 147.597 97.001 147.247L97.0002 139.559L97.3241 139.518H98.1981C99.1837 139.088 100.526 139.088 101.512 139.518H102.67L102.711 139.843L102.708 147.248C102.715 147.67 102.532 148.443 101.243 148.89C100.824 149.036 100.37 149.109 99.9026 149.11Z" fill="#3B3C3D"/>
<path d="M102.736 141.102L102.737 139.942L102.692 139.897H101.643C100.596 139.416 99.115 139.416 98.0664 139.897H97.0187L96.9734 139.942L96.9751 141.102C96.9678 141.803 97.5575 142.58 99.2329 142.819C99.9276 142.918 100.643 142.869 101.306 142.64C102.35 142.277 102.745 141.699 102.736 141.102Z" fill="#E1E0DE"/>
<path d="M97.2578 140.181L97.2586 141.101C97.2514 141.82 98.0043 142.357 99.2725 142.539C99.9495 142.635 100.62 142.577 101.213 142.371C101.784 142.173 102.463 141.793 102.452 141.105L102.454 140.181L101.526 140.155C100.557 139.71 99.1522 139.71 98.186 140.155L98.0673 140.181H97.2578ZM99.9067 143.151C99.6708 143.151 99.4317 143.134 99.1926 143.1C96.8555 142.766 96.6883 141.483 96.6916 141.098L96.6899 139.659L97.0187 139.613H98.0067C99.1037 139.132 100.605 139.132 101.705 139.613H102.976L103.021 139.942L103.019 141.099C103.026 141.564 102.824 142.413 101.399 142.907C100.933 143.068 100.427 143.151 99.9067 143.151Z" fill="#3B3C3D"/>
<path d="M101.897 138.812C103.025 139.463 103.025 140.519 101.897 141.17C100.769 141.821 98.9413 141.821 97.8136 141.17C96.685 140.519 96.685 139.463 97.8136 138.812C98.9413 138.161 100.769 138.161 101.897 138.812Z" fill="#E1E0DE"/>
<path d="M99.855 138.604C99.1667 138.604 98.4785 138.756 97.955 139.059C97.5002 139.32 97.2506 139.652 97.2506 139.991C97.2506 140.33 97.5002 140.662 97.955 140.924C99.0019 141.53 100.708 141.53 101.756 140.924C102.21 140.662 102.459 140.33 102.459 139.991C102.459 139.652 102.21 139.32 101.756 139.059C101.232 138.756 100.543 138.604 99.855 138.604ZM99.855 141.947C99.069 141.947 98.2838 141.769 97.6715 141.416C97.0341 141.048 96.6835 140.542 96.6835 139.991C96.6835 139.439 97.0349 138.934 97.6715 138.567C98.8961 137.861 100.815 137.861 102.039 138.567C102.676 138.934 103.026 139.44 103.026 139.991C103.026 140.542 102.677 141.048 102.039 141.416C101.427 141.769 100.641 141.947 99.855 141.947Z" fill="#3B3C3D"/>
<path d="M101.303 148.637H100.736V142.713H101.303V148.637Z" fill="#3B3C3D"/>
<path d="M142.273 110.332V107.542L142.26 107.534L80.8599 142.984L80.8559 142.991V145.781L80.8688 145.789L142.268 110.339L142.273 110.332Z" fill="#F2A65A"/>
<path d="M81.1394 143.15V145.306L141.988 110.174V108.018L81.1394 143.15ZM80.8632 146.119L80.5764 145.947L80.5724 145.781V142.816L80.7339 142.73L142.265 107.204L142.552 107.376L142.555 107.542V110.485L142.426 110.576L80.8632 146.119Z" fill="#3B3C3D"/>
<path d="M142.26 107.52L125.058 97.5482H125.049L80.8599 123.061L80.8559 123.068V142.972L80.8688 142.979L142.26 107.534V107.52Z" fill="white"/>
<path d="M81.1394 123.226V142.495L141.706 107.527L125.052 97.873L81.1394 123.226ZM80.8632 143.31L80.5764 143.138L80.5724 142.972V122.893L80.7339 122.807L125.06 97.2147L125.215 97.3124L142.543 107.346L142.548 107.703L142.387 107.787L80.8632 143.31Z" fill="#3B3C3D"/>
<path d="M90.3033 130.569L90.3049 123.162L90.2645 123.121H89.3291C88.3936 122.692 87.0729 122.692 86.1374 123.121H85.202L85.1616 123.162L85.1632 130.569C85.1567 131.195 85.6826 131.889 87.1771 132.102C87.7975 132.191 88.4357 132.147 89.0278 131.942C89.9592 131.619 90.3122 131.103 90.3033 130.569Z" fill="#F2A65A"/>
<path d="M85.4451 123.405L85.4467 130.569C85.4402 131.195 86.1018 131.662 87.2174 131.822C87.8136 131.906 88.4082 131.856 88.934 131.674C89.4349 131.5 90.0286 131.169 90.0197 130.574L90.0206 123.405L89.2103 123.379C88.3557 122.987 87.114 122.987 86.2553 123.379L86.1374 123.405H85.4451ZM87.778 132.428C87.5656 132.428 87.3515 132.414 87.1375 132.383C85.0282 132.081 84.8756 130.916 84.8796 130.566L84.878 122.877L85.2011 122.838H86.0768C87.0631 122.408 88.4049 122.408 89.3897 122.838H90.5481L90.5884 123.162L90.5868 130.567C90.5933 130.99 90.4099 131.763 89.1207 132.21C88.7006 132.356 88.2442 132.428 87.778 132.428Z" fill="#3B3C3D"/>
<path d="M90.6135 124.421L90.6152 123.262L90.5699 123.216H89.5214C88.4736 122.735 86.9929 122.735 85.9444 123.216H84.8966L84.8514 123.262L84.853 124.421C84.8457 125.122 85.4354 125.899 87.1108 126.138C87.8056 126.238 88.5213 126.188 89.1837 125.959C90.2282 125.596 90.6232 125.019 90.6135 124.421Z" fill="#F1DEC7"/>
<path d="M85.1349 123.5L85.1365 124.421C85.1292 125.141 85.8821 125.677 87.1504 125.858C87.8258 125.954 88.4978 125.897 89.0908 125.691C89.6627 125.492 90.3413 125.111 90.33 124.426L90.3308 123.5L89.4034 123.474C88.4357 123.03 87.0317 123.03 86.0631 123.474L85.9443 123.5H85.1349ZM87.7854 126.47C87.5487 126.47 87.3104 126.453 87.0712 126.419C84.7342 126.085 84.5654 124.803 84.5694 124.418L84.5678 122.978L84.8966 122.933H85.8837C86.9832 122.451 88.4833 122.451 89.5819 122.933H90.8543L90.8987 123.262L90.8971 124.42C90.9043 124.884 90.7016 125.731 89.2774 126.227C88.8113 126.388 88.304 126.47 87.7854 126.47Z" fill="#3B3C3D"/>
<path d="M89.775 122.132C90.9027 122.783 90.9027 123.839 89.775 124.49C88.6473 125.141 86.8192 125.141 85.6915 124.49C84.563 123.839 84.563 122.783 85.6915 122.132C86.8192 121.481 88.6473 121.481 89.775 122.132Z" fill="white"/>
<path d="M87.7337 121.923C87.0455 121.923 86.3572 122.075 85.8329 122.377C85.3789 122.64 85.1293 122.971 85.1293 123.311C85.1293 123.651 85.3789 123.982 85.8329 124.244C86.8807 124.85 88.586 124.85 89.6329 124.244C90.0877 123.982 90.3373 123.651 90.3373 123.311C90.3373 122.971 90.0877 122.64 89.6329 122.377C89.1094 122.075 88.4212 121.923 87.7337 121.923ZM87.7337 125.265C86.9477 125.265 86.1617 125.089 85.5494 124.736C84.9128 124.368 84.5622 123.861 84.5622 123.311C84.5622 122.76 84.9128 122.254 85.5494 121.886C86.774 121.179 88.6918 121.179 89.9164 121.886C90.5538 122.254 90.9044 122.76 90.9044 123.311C90.9044 123.861 90.5538 124.368 89.9164 124.736C89.3041 125.089 88.5197 125.265 87.7337 125.265Z" fill="#3B3C3D"/>
<path d="M89.1813 131.957H88.6142V126.033H89.1813V131.957Z" fill="#3B3C3D"/>
<path d="M142.273 90.3014V87.5104L142.26 87.5039L80.8607 122.953L80.8559 122.96V125.75L80.8688 125.757L142.268 90.3087L142.273 90.3014Z" fill="#F2A65A"/>
<path d="M81.1394 123.119V125.273L141.988 90.1419V87.9874L81.1394 123.119ZM80.8721 126.083L80.5772 125.924L80.5724 125.751V122.785L80.7339 122.699L142.261 87.1756L142.552 87.3404L142.556 87.51V90.4529L142.426 90.5442L80.8721 126.083Z" fill="#3B3C3D"/>
<path d="M142.26 87.4894L125.058 77.5169H125.049L80.8607 103.029L80.8559 103.037V122.94L80.8688 122.948L142.26 87.5039V87.4894Z" fill="white"/>
<path d="M81.1394 103.195V122.464L141.706 87.4955L125.052 77.8413L81.1394 103.195ZM80.8721 123.273L80.5772 123.115L80.5724 122.941V102.862L80.7339 102.776L125.06 77.1829L125.215 77.2807L142.543 87.3234L142.547 87.6619L142.399 87.75L80.8721 123.273Z" fill="#3B3C3D"/>
<path d="M142.273 71.2322V68.442L142.26 68.4348L80.8607 103.884L80.8559 103.891V106.682L80.8688 106.689L142.268 71.2395L142.273 71.2322Z" fill="#F2A65A"/>
<path d="M81.1394 104.05V106.206L141.988 71.0736V68.9191L81.1394 104.05ZM80.864 107.019L80.5764 106.847L80.5724 106.681V103.716L80.7339 103.63L142.261 68.1065L142.552 68.2721L142.556 68.4417V71.3838L142.426 71.4759L80.864 107.019Z" fill="#3B3C3D"/>
<path d="M142.26 68.4198L125.058 58.448H125.049L80.8607 83.9605L80.8559 83.9678V103.872L80.8688 103.879L142.26 68.4343V68.4198Z" fill="white"/>
<path d="M81.1394 84.1271V103.395L141.706 68.4272L125.052 58.7729L81.1394 84.1271ZM80.864 104.209L80.5764 104.037L80.5724 103.872V83.7927L80.7339 83.7071L125.06 58.1146L125.215 58.2123L142.538 68.243L142.552 68.5912L142.399 68.6817L80.864 104.209Z" fill="#3B3C3D"/>
<path d="M142.273 51.8201V49.0299L142.26 49.0226L80.8607 84.4721L80.8559 84.4786V87.2696L80.8688 87.2769L142.268 51.8274L142.273 51.8201Z" fill="#F2A65A"/>
<path d="M81.1394 84.6374V86.7935L141.988 51.6615V49.5054L81.1394 84.6374ZM80.864 87.6069L80.5764 87.4341L80.5724 87.2693V84.303L80.7339 84.2173L142.265 48.6919L142.552 48.8648L142.556 49.0296V51.9717L142.426 52.0638L80.864 87.6069Z" fill="#3B3C3D"/>
<path d="M142.26 49.0076L126.165 39.6773H126.157L80.8607 65.9355L80.8559 65.9427V84.4595L80.8688 84.4668L142.26 49.0222V49.0076Z" fill="white"/>
<path d="M81.1394 66.1015V83.9826L141.706 49.0154L126.161 40.0034L81.1394 66.1015ZM80.868 84.7944L80.5764 84.6296L80.5724 84.46V65.7679L80.7339 65.6823L126.167 39.3442L126.322 39.4419L142.543 48.8328L142.547 49.1907L142.387 49.2763L80.868 84.7944Z" fill="#3B3C3D"/>
<path d="M112.314 165.333H111.747V47.3206H112.314V165.333Z" fill="#3B3C3D"/>
<path d="M102.757 108.072L102.76 101.169L102.708 101.118H101.503C100.298 100.564 98.5971 100.564 97.3919 101.118H96.1882L96.1357 101.169L96.1374 108.072C96.1293 108.878 96.807 109.77 98.7321 110.046C99.5302 110.16 100.353 110.103 101.115 109.839C102.315 109.423 102.769 108.759 102.757 108.072Z" fill="white"/>
<path d="M96.4202 101.402L96.4218 108.072C96.4129 108.921 97.2918 109.554 98.7725 109.765C99.5561 109.878 100.334 109.812 101.022 109.572C101.692 109.339 102.488 108.891 102.474 108.077L102.476 101.402L101.385 101.376C100.263 100.86 98.6336 100.86 97.5099 101.376L97.392 101.402H96.4202ZM99.5093 110.385C99.2395 110.385 98.9656 110.365 98.6918 110.326C96.0421 109.948 95.8499 108.503 95.8539 108.069L95.8531 101.17C95.8531 100.985 96.0033 100.834 96.1883 100.834H97.3314C98.5875 100.281 100.309 100.281 101.564 100.834H102.707C102.893 100.834 103.043 100.985 103.043 101.17L103.041 108.07C103.049 108.592 102.82 109.548 101.208 110.107C100.677 110.292 100.101 110.385 99.5093 110.385Z" fill="#3B3C3D"/>
<path d="M103.157 102.792L103.16 101.299L103.102 101.241H101.751C100.401 100.621 98.4946 100.621 97.1447 101.241H95.7948L95.7367 101.299L95.7391 102.792C95.7294 103.695 96.4887 104.696 98.6464 105.004C99.5407 105.132 100.462 105.069 101.316 104.773C102.661 104.307 103.17 103.563 103.157 102.792Z" fill="#F1DEC7"/>
<path d="M96.0202 101.524L96.0226 102.791C96.0121 103.763 97.0081 104.483 98.686 104.723C99.5705 104.849 100.447 104.774 101.223 104.504C101.984 104.24 102.889 103.729 102.874 102.796L102.876 101.524L101.633 101.498C100.365 100.917 98.5269 100.917 97.2626 101.498L97.1447 101.524H96.0202ZM99.5156 105.349C99.2151 105.349 98.9106 105.328 98.606 105.284C95.6623 104.864 95.4499 103.268 95.4555 102.788L95.4531 101.3C95.4531 101.111 95.6066 100.957 95.7948 100.957H97.0833C98.4865 100.336 100.409 100.336 101.812 100.957H103.102C103.29 100.957 103.443 101.111 103.443 101.299L103.441 102.789C103.45 103.365 103.196 104.42 101.409 105.041C100.818 105.245 100.175 105.349 99.5156 105.349Z" fill="#3B3C3D"/>
<path d="M102.078 99.843C103.531 100.682 103.531 102.042 102.078 102.88C100.626 103.719 98.2709 103.719 96.8184 102.88C95.366 102.042 95.366 100.682 96.8184 99.843C98.2709 99.0045 100.626 99.0045 102.078 99.843Z" fill="white"/>
<path d="M99.4478 99.4949C98.5471 99.4949 97.6464 99.6928 96.9597 100.089C96.349 100.442 96.0122 100.894 96.013 101.363C96.013 101.83 96.349 102.282 96.9597 102.634C98.3338 103.428 100.565 103.428 101.936 102.634C102.547 102.282 102.883 101.83 102.883 101.363C102.883 100.894 102.547 100.442 101.936 100.089C101.25 99.6928 100.349 99.4949 99.4478 99.4949ZM99.4478 103.788C98.4437 103.788 97.4404 103.567 96.6762 103.126C95.8821 102.667 95.4459 102.041 95.4459 101.363C95.4451 100.683 95.8821 100.056 96.6762 99.5983C98.2054 98.7153 100.692 98.7153 102.219 99.5983C103.014 100.056 103.451 100.683 103.451 101.363C103.451 102.041 103.014 102.667 102.219 103.126C101.456 103.567 100.451 103.788 99.4478 103.788Z" fill="#3B3C3D"/>
<path d="M102.129 104.409H101.562V102.864H102.129V104.409Z" fill="#3B3C3D"/>
<path d="M97.3014 104.585H96.7343V103.039H97.3014V104.585Z" fill="#3B3C3D"/>
<path d="M101.6 109.764H101.033V104.773H101.6V109.764Z" fill="#3B3C3D"/>
<path d="M106.226 97.8521L86.0461 109.502C85.2374 109.969 84.5823 109.474 84.5823 108.396V73.5804C84.5823 72.5028 85.2374 71.2498 86.0461 70.7837L106.226 59.1326C107.035 58.6656 107.69 59.1608 107.69 60.2393V95.0546C107.69 96.1322 107.035 97.3852 106.226 97.8521Z" fill="#FEC790"/>
<path d="M106.226 59.1816L103.816 60.5726V92.2076C103.816 93.286 103.161 94.5381 102.353 95.005L84.5823 105.264V108.445C84.5823 109.523 85.2374 110.018 86.0461 109.552L106.226 97.9011C107.035 97.4342 107.69 96.182 107.69 95.1036V60.2883C107.69 59.2098 107.035 58.7146 106.226 59.1816Z" fill="white"/>
<path d="M106.807 59.2398C106.649 59.2398 106.49 59.3077 106.368 59.378L86.1882 71.0283C85.4717 71.4419 84.8659 72.6108 84.8659 73.5802V108.396C84.8659 108.852 85.0016 109.203 85.2302 109.334C85.4556 109.464 85.7213 109.363 85.9047 109.257L106.085 97.6063C106.801 97.1919 107.406 96.0238 107.406 95.0545V60.2391C107.406 59.7827 107.271 59.4321 107.042 59.3004C106.967 59.2568 106.887 59.2398 106.807 59.2398ZM85.4644 109.962C85.2795 109.962 85.105 109.917 84.9466 109.825C84.5355 109.588 84.2988 109.067 84.2988 108.396V73.5802C84.2988 72.3935 85.004 71.0574 85.9047 70.5372L106.085 58.8868C106.528 58.63 106.968 58.6033 107.326 58.8093C107.738 59.0468 107.973 59.5678 107.973 60.2391V95.0545C107.973 96.2411 107.268 97.5773 106.368 98.0975L86.1882 109.749C85.9411 109.89 85.6955 109.962 85.4644 109.962Z" fill="#3B3C3D"/>
<path d="M135.679 46.572L135.681 40.0295L135.645 39.994H134.819C133.993 39.6143 132.826 39.6143 132 39.994H131.173L131.138 40.0295L131.139 46.572C131.134 47.1246 131.598 47.7377 132.918 47.9259C133.466 48.0043 134.03 47.9655 134.552 47.7846C135.376 47.4986 135.687 47.0438 135.679 46.572Z" fill="#F2A65A"/>
<path d="M131.421 40.2771L131.423 46.5717C131.417 47.1072 131.992 47.5063 132.958 47.6444C133.481 47.7188 134.001 47.6752 134.46 47.516C134.892 47.3666 135.404 47.0814 135.396 46.5765L135.397 40.2771L134.701 40.2513C133.952 39.9072 132.867 39.9072 132.118 40.2513L132 40.2771H131.421ZM133.451 48.2471C133.262 48.2471 133.07 48.2334 132.879 48.2059C130.987 47.9361 130.852 46.8851 130.856 46.5693L130.854 39.7456L131.174 39.7101H131.939C132.816 39.3312 134.004 39.332 134.879 39.7101H135.929L135.964 40.0291L135.963 46.5708C135.968 46.9529 135.804 47.6493 134.646 48.0524C134.272 48.1816 133.866 48.2471 133.451 48.2471Z" fill="#3B3C3D"/>
<path d="M135.953 41.1414L135.956 40.1179L135.915 40.0775H134.989C134.063 39.6518 132.756 39.6518 131.83 40.0775H130.904L130.864 40.1179L130.865 41.1414C130.859 41.761 131.38 42.4469 132.859 42.6585C133.473 42.7466 134.106 42.7029 134.69 42.4994C135.613 42.1795 135.962 41.6697 135.953 41.1414Z" fill="#F1DEC7"/>
<path d="M131.148 40.3611L131.149 41.1406C131.142 41.7586 131.797 42.2199 132.899 42.3774C133.491 42.4622 134.078 42.4113 134.598 42.2312C135.092 42.0599 135.679 41.7327 135.669 41.1455L135.671 40.3611L134.871 40.3352C134.023 39.9467 132.796 39.9467 131.948 40.3352L131.83 40.3611H131.148ZM133.455 42.9849C133.245 42.9849 133.032 42.9695 132.819 42.9388C130.73 42.6407 130.579 41.4855 130.582 41.1382L130.581 39.8336L130.904 39.794H131.769C132.745 39.3683 134.073 39.3683 135.05 39.794H136.199L136.238 40.1171L136.237 41.139C136.243 41.5574 136.062 42.3241 134.784 42.7676C134.368 42.9114 133.917 42.9849 133.455 42.9849Z" fill="#3B3C3D"/>
<path d="M135.213 39.1194C136.209 39.6945 136.209 40.6268 135.213 41.2019C134.217 41.7771 132.602 41.7771 131.605 41.2019C130.609 40.6268 130.609 39.6945 131.605 39.1194C132.602 38.5442 134.217 38.5442 135.213 39.1194Z" fill="#F2A65A"/>
<path d="M133.409 38.9749C132.804 38.9749 132.198 39.105 131.748 39.3651C131.357 39.5897 131.142 39.8732 131.142 40.1616C131.142 40.4484 131.357 40.7311 131.748 40.9557C132.649 41.4776 134.17 41.4776 135.072 40.9557C135.461 40.7311 135.676 40.4484 135.676 40.1616C135.676 39.8732 135.461 39.5897 135.072 39.3659C134.621 39.105 134.015 38.9749 133.409 38.9749ZM133.409 41.9194C132.71 41.9194 132.009 41.7627 131.464 41.4469C130.891 41.1165 130.575 40.6592 130.575 40.1616C130.575 39.6616 130.891 39.2044 131.464 38.874C132.554 38.2447 134.262 38.2447 135.355 38.874C135.928 39.2044 136.244 39.6616 136.244 40.1616C136.244 40.6592 135.928 41.1165 135.355 41.4477C134.809 41.7627 134.109 41.9194 133.409 41.9194Z" fill="#3B3C3D"/>
<path d="M123.459 93.7345L123.46 87.1912L123.425 87.1557H122.598C121.772 86.776 120.605 86.776 119.779 87.1557H118.953L118.917 87.1912L118.918 93.7345C118.912 94.2871 119.377 94.8994 120.697 95.0884C121.245 95.166 121.809 95.128 122.332 94.9463C123.155 94.6611 123.466 94.2055 123.459 93.7345Z" fill="#F2A65A"/>
<path d="M119.201 87.4394L119.202 93.7347C119.196 94.2695 119.771 94.6694 120.737 94.8075C121.26 94.8818 121.781 94.8374 122.239 94.6791C122.67 94.5288 123.183 94.2445 123.175 93.7396L123.177 87.4394L122.479 87.4136C121.731 87.0694 120.647 87.0694 119.897 87.4136L119.779 87.4394H119.201ZM121.23 95.4102C121.041 95.4102 120.849 95.3956 120.658 95.369C118.767 95.0991 118.631 94.0482 118.634 93.7315L118.633 86.9079L118.953 86.8723H119.718C120.595 86.4935 121.783 86.4943 122.659 86.8723H123.708L123.744 87.1914L123.742 93.7331C123.747 94.1152 123.582 94.8124 122.425 95.2147C122.051 95.3439 121.646 95.4102 121.23 95.4102Z" fill="#3B3C3D"/>
<path d="M123.732 88.3035L123.734 87.28L123.695 87.2404H122.768C121.842 86.8147 120.535 86.8147 119.609 87.2404H118.683L118.643 87.28L118.645 88.3035C118.638 88.9231 119.159 89.6097 120.639 89.8206C121.252 89.9086 121.884 89.865 122.47 89.6623C123.392 89.3424 123.741 88.8318 123.732 88.3035Z" fill="#F1DEC7"/>
<path d="M118.928 87.524V88.3035C118.922 88.9207 119.576 89.3828 120.678 89.5403C121.27 89.6243 121.857 89.5742 122.377 89.3941C122.871 89.2228 123.459 88.8949 123.449 88.3084L123.45 87.524L122.651 87.4981C121.803 87.1096 120.575 87.1096 119.727 87.4981L119.609 87.524H118.928ZM121.235 90.147C121.024 90.147 120.811 90.1316 120.599 90.1017C118.509 89.8028 118.358 88.6477 118.36 88.3003L118.36 86.9965L118.684 86.9561H119.548C120.525 86.5312 121.853 86.5312 122.829 86.9561H123.978L124.018 87.28L124.016 88.3011C124.022 88.7204 123.841 89.487 122.564 89.9297C122.147 90.0743 121.697 90.147 121.235 90.147Z" fill="#3B3C3D"/>
<path d="M122.992 86.2815C123.988 86.8566 123.988 87.7889 122.992 88.364C121.996 88.9392 120.381 88.9392 119.385 88.364C118.389 87.7897 118.389 86.8566 119.385 86.2815C120.381 85.7063 121.996 85.7063 122.992 86.2815Z" fill="#F2A65A"/>
<path d="M121.189 86.1367C120.583 86.1367 119.978 86.2668 119.527 86.5269C119.136 86.7523 118.921 87.035 118.921 87.3234C118.921 87.6102 119.136 87.8937 119.527 88.1183C120.428 88.6393 121.95 88.6393 122.85 88.1183C123.241 87.8937 123.455 87.6102 123.455 87.3234C123.455 87.035 123.241 86.7523 122.85 86.5277C122.4 86.2668 121.795 86.1367 121.189 86.1367ZM121.189 89.082C120.488 89.082 119.789 88.9245 119.243 88.6095C118.67 88.2791 118.354 87.8218 118.354 87.3234C118.354 86.8242 118.67 86.367 119.243 86.0358C120.332 85.4065 122.042 85.4065 123.134 86.0358C123.707 86.367 124.023 86.8242 124.023 87.3234C124.023 87.8218 123.707 88.2791 123.134 88.6103C122.589 88.9245 121.888 89.082 121.189 89.082Z" fill="#3B3C3D"/>
<path d="M122.501 94.96H121.933V89.7277H122.501V94.96Z" fill="#3B3C3D"/>
<path d="M157.184 19.0208C147.672 20.0823 146.963 20.9441 146.087 32.478C145.212 20.9441 144.502 20.0823 134.99 19.0208C144.502 17.9592 145.212 17.1004 146.087 5.56353C146.963 17.1004 147.672 17.9592 157.184 19.0208Z" fill="white"/>
<path d="M136.114 19.0204C144.227 20.0015 145.277 21.1883 146.087 30.8466C146.897 21.1883 147.948 20.0015 156.06 19.0204C147.948 18.0424 146.897 16.8556 146.087 7.19429C145.277 16.8556 144.227 18.0424 136.114 19.0204ZM146.087 32.6089C146.02 32.6089 145.963 32.5552 145.958 32.4896C145.083 20.9557 144.467 20.2102 134.976 19.1487C134.911 19.1427 134.862 19.086 134.862 19.0204C134.862 18.9548 134.911 18.9012 134.976 18.8922C144.467 17.8336 145.083 17.0852 145.958 5.55425C145.963 5.48566 146.02 5.43497 146.087 5.43497C146.155 5.43497 146.211 5.48566 146.216 5.55425C147.091 17.0852 147.707 17.8336 157.198 18.8922C157.264 18.9012 157.313 18.9548 157.313 19.0204C157.313 19.086 157.264 19.1427 157.198 19.1487C147.707 20.2102 147.091 20.9557 146.216 32.4896C146.211 32.5552 146.155 32.6089 146.087 32.6089Z" fill="#2D2D2D"/>
</g>
</svg>
